<svg width="192" height="160" viewBox="0 0 192 160" fill="none" xmlns="http://www.w3.org/2000/svg">
<g filter="url(#filter0_dd)">
<rect x="31" y="15.3814" width="130" height="31.5534" rx="15.7767" fill="white"/>
</g>
<g filter="url(#filter1_dd)">
<rect x="31" y="84.3777" width="130" height="27.767" rx="13.8835" fill="white"/>
</g>
<g filter="url(#filter2_dd)">
<rect x="31" y="50.7209" width="130" height="27.767" rx="13.8835" fill="white"/>
</g>
<path d="M150.189 34.4884C150.362 34.6611 150.641 34.6611 150.813 34.4884L153.743 31.559C153.775 31.5264 153.801 31.4877 153.819 31.445C153.837 31.4024 153.846 31.3567 153.846 31.3105C153.846 31.2643 153.837 31.2186 153.819 31.176C153.801 31.1333 153.775 31.0946 153.743 31.062L150.813 28.1326C150.641 27.9599 150.362 27.9599 150.189 28.1326C150.017 28.3053 150.017 28.5838 150.189 28.7565L152.741 31.3123L150.186 33.868C150.017 34.0372 150.017 34.3192 150.189 34.4884V34.4884Z" fill="#9B9A9A"/>
<path d="M150.189 102.222C150.362 102.394 150.641 102.394 150.813 102.222L153.743 99.2923C153.775 99.2597 153.801 99.2209 153.819 99.1783C153.837 99.1357 153.846 99.0899 153.846 99.0438C153.846 98.9976 153.837 98.9519 153.819 98.9092C153.801 98.8666 153.775 98.8279 153.743 98.7953L150.813 95.8659C150.641 95.6931 150.362 95.6931 150.189 95.8659C150.017 96.0386 150.017 96.3171 150.189 96.4898L152.741 99.0455L150.186 101.601C150.017 101.77 150.017 102.052 150.189 102.222V102.222Z" fill="#9B9A9A"/>
<path d="M150.189 68.5649C150.362 68.7377 150.641 68.7377 150.813 68.5649L153.743 65.6356C153.775 65.6029 153.801 65.5642 153.819 65.5216C153.837 65.4789 153.846 65.4332 153.846 65.387C153.846 65.3409 153.837 65.2952 153.819 65.2525C153.801 65.2099 153.775 65.1711 153.743 65.1385L150.813 62.2091C150.641 62.0364 150.362 62.0364 150.189 62.2091C150.017 62.3819 150.017 62.6604 150.189 62.8331L152.741 65.3888L150.186 67.9445C150.017 68.1137 150.017 68.3957 150.189 68.5649V68.5649Z" fill="#9B9A9A"/>
<path fill-rule="evenodd" clip-rule="evenodd" d="M43.6237 93.2122C40.8399 93.2122 38.5752 95.4769 38.5752 98.2607C38.5752 101.045 40.8399 103.309 43.6237 103.309C46.4076 103.309 48.6723 101.045 48.6723 98.2607C48.6723 95.4769 46.4076 93.2122 43.6237 93.2122ZM43.6215 102.738C41.1525 102.738 39.1445 100.73 39.1445 98.2611C39.1445 95.7925 41.1525 93.784 43.6215 93.784C46.0906 93.784 48.0985 95.7925 48.0985 98.2611C48.0985 100.73 46.0906 102.738 43.6215 102.738ZM45.2659 99.9084C45.3773 99.797 45.3773 99.6155 45.2659 99.5045L43.9042 98.1424V95.0132C43.9042 94.8556 43.7761 94.7275 43.6184 94.7275C43.4608 94.7275 43.3327 94.8556 43.3327 95.0132V98.261C43.3327 98.3367 43.3627 98.4096 43.4165 98.4629L44.862 99.9084C44.9177 99.9641 44.9911 99.9922 45.0639 99.9922C45.1368 99.9922 45.2101 99.9641 45.2659 99.9084Z" fill="#FFB854"/>
<path fill-rule="evenodd" clip-rule="evenodd" d="M157.214 20.0086C158.841 20.0086 160.159 18.6901 160.159 17.0636C160.159 15.4372 158.841 14.1187 157.214 14.1187C155.588 14.1187 154.269 15.4372 154.269 17.0636C154.269 18.6901 155.588 20.0086 157.214 20.0086Z" fill="#E2645A"/>
<path fill-rule="evenodd" clip-rule="evenodd" d="M157.214 57.0321C158.841 57.0321 160.159 55.7135 160.159 54.0871C160.159 52.4606 158.841 51.1421 157.214 51.1421C155.588 51.1421 154.269 52.4606 154.269 54.0871C154.269 55.7135 155.588 57.0321 157.214 57.0321Z" fill="#E2645A"/>
<path d="M41.7416 31.7686L43.1522 33.1792L46.3582 29.9733" stroke="#68BFB7" stroke-linecap="round" stroke-linejoin="round"/>
<path d="M44.0394 36.4175C46.8276 36.4175 49.0879 34.1572 49.0879 31.369C49.0879 28.5807 46.8276 26.3204 44.0394 26.3204C41.2511 26.3204 38.9908 28.5807 38.9908 31.369C38.9908 34.1572 41.2511 36.4175 44.0394 36.4175Z" stroke="#68BFB7"/>
<path d="M40.6785 62.0797L46.9891 68.3904" stroke="#E2645A" stroke-linecap="round"/>
<path d="M46.9895 62.0797L40.6788 68.3904" stroke="#E2645A" stroke-linecap="round"/>
<rect x="56.2428" y="22.5334" width="50.4854" height="3.78641" rx="1.8932" fill="#86D0CB"/>
<rect x="56.2428" y="55.77" width="50.4854" height="3.78641" rx="1.8932" fill="#E2645A"/>
<rect x="56.2428" y="89.4266" width="50.4854" height="3.78641" rx="1.8932" fill="#FFB854"/>
<rect x="56.2428" y="29.2644" width="60.1618" height="3.78641" rx="1.8932" fill="#F2F2F2"/>
<rect x="56.2428" y="62.5016" width="60.1618" height="3.78641" rx="1.8932" fill="#F2F2F2"/>
<rect x="56.2428" y="96.1578" width="18.932" height="3.78641" rx="1.8932" fill="#F2F2F2"/>
<rect x="78.5376" y="96.1578" width="34.4984" height="3.78641" rx="1.8932" fill="#F2F2F2"/>
<rect x="56.2428" y="36.4164" width="22.2977" height="3.78641" rx="1.8932" fill="#F2F2F2"/>
<rect x="56.2428" y="69.6533" width="22.2977" height="3.78641" rx="1.8932" fill="#F2F2F2"/>
<rect x="56.2428" y="103.31" width="22.2977" height="3.78641" rx="1.8932" fill="#F2F2F2"/>
<rect x="81.4822" y="36.4164" width="22.2977" height="3.78641" rx="1.8932" fill="#F2F2F2"/>
<rect x="81.4822" y="69.6533" width="22.2977" height="3.78641" rx="1.8932" fill="#F2F2F2"/>
<rect x="81.4822" y="103.31" width="22.2977" height="3.78641" rx="1.8932" fill="#F2F2F2"/>
<defs>
<filter id="filter0_dd" x="0" y="0.381409" width="192" height="93.5534" filterUnits="userSpaceOnUse" color-interpolation-filters="sRGB">
<feFlood flood-opacity="0" result="BackgroundImageFix"/>
<feColorMatrix in="SourceAlpha" type="matrix" values="0 0 0 0 0 0 0 0 0 0 0 0 0 0 0 0 0 0 127 0"/>
<feOffset dy="16"/>
<feGaussianBlur stdDeviation="15.5"/>
<feColorMatrix type="matrix" values="0 0 0 0 0.345098 0 0 0 0 0.345098 0 0 0 0 0.345098 0 0 0 0.04 0"/>
<feBlend mode="normal" in2="BackgroundImageFix" result="effect1_dropShadow"/>
<feColorMatrix in="SourceAlpha" type="matrix" values="0 0 0 0 0 0 0 0 0 0 0 0 0 0 0 0 0 0 127 0"/>
<feOffset dy="3"/>
<feGaussianBlur stdDeviation="5"/>
<feColorMatrix type="matrix" values="0 0 0 0 0.345098 0 0 0 0 0.345098 0 0 0 0 0.345098 0 0 0 0.1 0"/>
<feBlend mode="normal" in2="effect1_dropShadow" result="effect2_dropShadow"/>
<feBlend mode="normal" in="SourceGraphic" in2="effect2_dropShadow" result="shape"/>
</filter>
<filter id="filter1_dd" x="0" y="69.3777" width="192" height="89.767" filterUnits="userSpaceOnUse" color-interpolation-filters="sRGB">
<feFlood flood-opacity="0" result="BackgroundImageFix"/>
<feColorMatrix in="SourceAlpha" type="matrix" values="0 0 0 0 0 0 0 0 0 0 0 0 0 0 0 0 0 0 127 0"/>
<feOffset dy="16"/>
<feGaussianBlur stdDeviation="15.5"/>
<feColorMatrix type="matrix" values="0 0 0 0 0.345098 0 0 0 0 0.345098 0 0 0 0 0.345098 0 0 0 0.04 0"/>
<feBlend mode="normal" in2="BackgroundImageFix" result="effect1_dropShadow"/>
<feColorMatrix in="SourceAlpha" type="matrix" values="0 0 0 0 0 0 0 0 0 0 0 0 0 0 0 0 0 0 127 0"/>
<feOffset dy="3"/>
<feGaussianBlur stdDeviation="5"/>
<feColorMatrix type="matrix" values="0 0 0 0 0.345098 0 0 0 0 0.345098 0 0 0 0 0.345098 0 0 0 0.1 0"/>
<feBlend mode="normal" in2="effect1_dropShadow" result="effect2_dropShadow"/>
<feBlend mode="normal" in="SourceGraphic" in2="effect2_dropShadow" result="shape"/>
</filter>
<filter id="filter2_dd" x="0" y="35.7209" width="192" height="89.767" filterUnits="userSpaceOnUse" color-interpolation-filters="sRGB">
<feFlood flood-opacity="0" result="BackgroundImageFix"/>
<feColorMatrix in="SourceAlpha" type="matrix" values="0 0 0 0 0 0 0 0 0 0 0 0 0 0 0 0 0 0 127 0"/>
<feOffset dy="16"/>
<feGaussianBlur stdDeviation="15.5"/>
<feColorMatrix type="matrix" values="0 0 0 0 0.345098 0 0 0 0 0.345098 0 0 0 0 0.345098 0 0 0 0.04 0"/>
<feBlend mode="normal" in2="BackgroundImageFix" result="effect1_dropShadow"/>
<feColorMatrix in="SourceAlpha" type="matrix" values="0 0 0 0 0 0 0 0 0 0 0 0 0 0 0 0 0 0 127 0"/>
<feOffset dy="3"/>
<feGaussianBlur stdDeviation="5"/>
<feColorMatrix type="matrix" values="0 0 0 0 0.345098 0 0 0 0 0.345098 0 0 0 0 0.345098 0 0 0 0.1 0"/>
<feBlend mode="normal" in2="effect1_dropShadow" result="effect2_dropShadow"/>
<feBlend mode="normal" in="SourceGraphic" in2="effect2_dropShadow" result="shape"/>
</filter>
</defs>
</svg>
