<svg width="155" height="104" viewBox="0 0 155 104" fill="none" xmlns="http://www.w3.org/2000/svg">
<path d="M29.3496 4.08813C29.3496 4.08813 29.2542 4.18064 29.0952 4.34831C29.0138 4.30143 28.9381 4.24515 28.8698 4.18064L29.3496 4.08813Z" fill="#593D36"/>
<path d="M29.3496 4.08813C29.3496 4.08813 29.2542 4.18064 29.0952 4.34831C29.0138 4.30143 28.9381 4.24515 28.8698 4.18064L29.3496 4.08813Z" fill="#593D36"/>
<path d="M146.826 46.7398L153.429 40.1371" stroke="#DB5D79" stroke-width="1.43" stroke-linecap="round" stroke-linejoin="round" stroke-dasharray="23.76 0.48 4.75 4.75 52.28 23.76 0.48 4.75"/>
<path d="M152.388 48.2693L148.593 47.9716" stroke="#84B8E2" stroke-width="1.43" stroke-linecap="round" stroke-linejoin="round" stroke-dasharray="23.76 0.48 4.75 4.75 52.28 23.76 0.48 4.75"/>
<path d="M62.6188 86.6889L71.277 81.4766L66.9465 76.3337L58.8665 78.9905L62.6188 86.6889Z" fill="#E2645A"/>
<path d="M64.1782 89.3687L59.3938 91.3518C55.5344 92.5457 51.3542 90.7736 49.7151 87.2121L33.2458 51.6023C31.9362 47.7343 32.6936 42.2705 36.7409 41.0188L37.4636 40.7962C41.5108 39.5444 47.3128 42.9759 48.6224 46.8439L64.1782 89.3687Z" fill="#E2645A"/>
<path d="M62.4252 92.2189C61.39 93.8544 60.0224 95.2539 58.4113 96.3266C56.8002 97.3994 54.9815 98.1214 53.0732 98.4458L46.1091 99.6773L28.4748 103.979C27.2144 104.222 27.859 102.308 27.3387 101.183L10.19 64.2641L1.49713 50.2173L12.6704 39.4373C14.0233 40.7266 16.2088 42.4177 29.4374 41.6777C33.6523 41.4435 36.9913 41.802 39.2664 40.7237C42.9928 38.9545 38.7172 39.8015 40.1713 43.5278L41.1715 44.3228C43.1951 47.2311 44.1173 48.3701 49.3267 52.663L47.5314 51.1684C49.8904 54.9584 54.5823 59.3467 51.7926 64.4665L52.6599 69.1497L54.0648 78.0044L62.4252 92.2189Z" fill="white"/>
<path d="M21.2039 43.5887C21.2039 43.5887 23.4096 47.847 27.7604 52.6892C30.3304 55.5396 32.01 63.0964 32.01 63.0964C32.01 63.0964 37.9594 96.0119 41.7927 96.8444C44.9235 97.5151 30.1945 99.7526 24.6874 100.553C24.145 100.64 23.5897 100.527 23.1248 100.234C22.66 99.9415 22.3173 99.4899 22.1608 98.9634C20.0186 91.1003 11.9155 60.8704 11.6871 51.7468C11.4269 41.2356 21.2039 43.5887 21.2039 43.5887Z" fill="#E2645A"/>
<path d="M32.8796 90.1405L29.1215 91.664C25.3836 93.173 21.0588 91.7363 19.1046 88.3395L4.15011 62.3736C2.49363 58.6299 -0.330752 47.1358 3.58639 45.5545L4.25418 44.2912C8.17132 42.7099 12.6898 44.4618 14.3462 48.2054L32.8796 90.1405Z" fill="#E2645A"/>
<path d="M18.9085 24.0985C18.5604 24.0872 18.215 24.1626 17.9033 24.3179C17.5915 24.4732 17.3233 24.7035 17.1226 24.9882C16.922 25.2728 16.7952 25.6029 16.7537 25.9487C16.7122 26.2944 16.7573 26.6451 16.8849 26.9692C18.313 30.5972 20.1285 36.4628 17.8158 38.3101C15.6967 38.9143 15.8182 41.9641 17.9805 42.3891C20.6662 42.921 19.6226 44.3896 22.1087 46.0345C23.3344 46.8439 33.6491 48.3125 34.8054 48.3038C39.9223 48.2547 39.506 42.4816 39.5841 38.6338L32.0678 38.5702C31.7598 38.5678 31.456 38.4976 31.1782 38.3646C30.9004 38.2316 30.6552 38.039 30.4601 37.8007C30.2651 37.5623 30.1249 37.2839 30.0495 36.9852C29.9741 36.6865 29.9654 36.3749 30.0239 36.0725L31.7787 26.9923C31.8362 26.6932 31.828 26.3852 31.7548 26.0897C31.6815 25.7941 31.5448 25.5179 31.3543 25.2804C31.1638 25.0428 30.9239 24.8495 30.6512 24.7138C30.3786 24.5781 30.0797 24.5033 29.7753 24.4946L18.9085 24.0985Z" fill="#F7D4BC"/>
<path d="M16.7646 27.842C16.7646 27.842 19.7769 39.8218 17.1317 42.3803C16.9554 42.5508 16.9554 43.1463 16.9554 43.1463L9.21362 45.3521C9.21362 45.3521 35.4223 47.3439 38.7237 43.4701L30.1147 37.83L31.219 30.8312L16.7646 27.842Z" fill="url(#paint0_linear)"/>
<path d="M37.0815 18.3802C36.9254 18.9584 37.3041 19.5741 37.174 20.716C36.722 24.2239 35.0534 27.4619 32.459 29.8657C30.684 31.4354 29.8225 33.8753 27.7902 33.3347C23.9483 32.2969 18.5019 30.1547 16.7847 26.2723C16.2672 25.0928 14.1829 25.6941 13.2289 23.2687C12.7721 22.095 13.2289 21.1815 13.3041 19.8661C13.3041 19.577 14.8738 16.8249 14.9056 16.5358C15.7989 8.63796 22.8873 5.39151 29.3773 6.07086C35.8673 6.75022 38.9172 11.5895 37.0815 18.3773V18.3802Z" fill="#F7D4BC"/>
<path d="M30.6709 24.6509C30.639 24.6479 30.6089 24.6348 30.585 24.6135C30.5611 24.5921 30.5446 24.5637 30.538 24.5324C30.5282 24.4921 30.5346 24.4497 30.5556 24.4141C30.5767 24.3785 30.6108 24.3524 30.6507 24.3416V24.3416C31.9025 24.0525 32.0297 23.7027 32.0383 23.5957V23.5524C32.0207 23.5277 32.007 23.5004 31.9979 23.4714C31.9895 23.4461 31.9895 23.4187 31.9979 23.3934C31.9842 23.3869 31.9719 23.3776 31.962 23.3662C31.952 23.3547 31.9446 23.3413 31.94 23.3269C31.4383 22.1398 31.0511 20.9075 30.7837 19.6468C30.7001 19.2253 30.6797 18.7937 30.723 18.3661C30.8782 17.1243 31.2223 15.9135 31.7435 14.7757C31.7643 14.7389 31.7979 14.7112 31.838 14.6978C31.878 14.6845 31.9216 14.6865 31.9603 14.7034C31.9977 14.7204 32.0269 14.7515 32.0415 14.79C32.0561 14.8284 32.055 14.871 32.0383 14.9086V14.9086C31.5382 16.0098 31.2031 17.1788 31.0439 18.3777C30.9961 18.7749 31.0137 19.1772 31.0959 19.5687C31.6076 21.7022 32.0268 22.7487 32.2291 23.1823C32.2361 23.2079 32.2361 23.2348 32.2291 23.2604C32.2291 23.2777 32.2725 23.2951 32.2898 23.3124C32.3072 23.3298 32.3159 23.3616 32.3303 23.3789C32.3578 23.4426 32.3677 23.5124 32.3592 23.5813C32.3332 23.8704 32.021 24.304 30.723 24.596C30.6854 24.6393 30.6709 24.6393 30.6536 24.6364L30.6709 24.6509Z" fill="#B5958A"/>
<path d="M23.5908 24.4742C23.5908 24.4742 27.8866 27.1252 31.3961 26.3099C31.3961 26.3099 29.9247 27.449 29.7165 27.7843C29.4274 28.2382 26.0162 28.5966 23.5908 24.4742Z" fill="white"/>
<path d="M29.1988 26.5964C27.4441 26.449 25.4754 25.7928 23.3419 24.6595C23.3246 24.6482 23.3099 24.6332 23.2988 24.6156C23.2878 24.598 23.2806 24.5783 23.2779 24.5577C23.2751 24.5372 23.2769 24.5162 23.2829 24.4964C23.289 24.4765 23.2993 24.4582 23.313 24.4427C23.3366 24.4197 23.3659 24.4033 23.3979 24.3952C23.4299 24.3871 23.4634 24.3875 23.4951 24.3965C25.5968 25.5094 27.5164 26.1628 29.2249 26.3044C30.7426 26.4316 31.5144 26.0963 31.5376 26.0992C31.5772 26.0811 31.6222 26.0792 31.6632 26.0938C31.7042 26.1083 31.7379 26.1383 31.7573 26.1772C31.7662 26.1963 31.7711 26.217 31.7717 26.238C31.7723 26.2591 31.7686 26.28 31.7607 26.2996C31.7528 26.3191 31.741 26.3368 31.726 26.3516C31.711 26.3663 31.6931 26.3778 31.6734 26.3854C30.8703 26.6166 30.0296 26.6883 29.1988 26.5964V26.5964Z" fill="#CE978D"/>
<path d="M28.1746 28.1807C26.547 28.0419 25.0235 26.9174 23.6562 24.8186C23.6364 24.7834 23.6308 24.742 23.6405 24.7028C23.6502 24.6636 23.6744 24.6296 23.7082 24.6076C23.7448 24.5889 23.7868 24.5835 23.8269 24.5925C23.867 24.6015 23.9028 24.6242 23.9279 24.6567C25.2259 26.6398 26.7031 27.7499 28.2035 27.8743C28.8841 27.9308 29.5659 27.7785 30.1577 27.4377C30.1899 27.4124 30.2296 27.3986 30.2705 27.3986C30.3114 27.3986 30.3511 27.4124 30.3832 27.4377C30.41 27.4675 30.4249 27.5061 30.4249 27.5461C30.4249 27.5862 30.41 27.6248 30.3832 27.6545L30.3485 27.6806C29.6992 28.0804 28.9362 28.2552 28.1775 28.1778L28.1746 28.1807Z" fill="#CE978D"/>
<path d="M23.8847 14.0265C23.6794 13.9773 23.6505 13.7605 23.8471 13.7374C24.8878 13.6246 26.7148 13.5177 28.1285 13.8819C30.2186 14.4399 28.2412 14.9371 28.2412 14.9371L23.8847 14.0265Z" fill="#593D36"/>
<path d="M37.5217 16.1893C37.7125 16.1893 37.8108 15.9956 37.6431 15.9205C36.7759 15.5099 35.2119 14.8711 33.8647 14.8046C31.8787 14.7323 33.4542 15.7875 33.4542 15.7875L37.5217 16.1893Z" fill="#593D36"/>
<path d="M22.5963 25.5118C25.0387 25.4141 26.9419 23.4157 26.8473 21.0483C26.7526 18.6808 24.6959 16.8408 22.2535 16.9385C19.811 17.0362 17.9078 19.0345 18.0025 21.402C18.0971 23.7694 20.1539 25.6094 22.5963 25.5118Z" fill="url(#paint1_linear)"/>
<path d="M28.4906 33.4015C29.711 33.3527 30.662 32.3536 30.6147 31.1698C30.5673 29.9861 29.5396 29.0661 28.3192 29.1149C27.0988 29.1637 26.1478 30.1628 26.1951 31.3466C26.2425 32.5303 27.2702 33.4503 28.4906 33.4015Z" fill="url(#paint2_linear)"/>
<path d="M37.6654 19.8228C38.137 20.1378 38.5403 20.5446 38.8509 21.019C39.1616 21.4934 39.3734 22.0257 39.4735 22.5838C39.5736 23.142 39.5601 23.7147 39.4337 24.2675C39.3073 24.8203 39.0707 25.342 38.7379 25.8012C38.0537 26.7291 37.0405 27.3603 35.906 27.5656C34.7715 27.7709 33.6014 27.5347 32.6353 26.9055C32.6209 26.9055 32.5891 26.8881 32.5746 26.8708C32.1039 26.5547 31.7017 26.1469 31.3921 25.6719C31.0824 25.1969 30.8717 24.6644 30.7724 24.1061C30.6731 23.5479 30.6873 22.9753 30.8142 22.4227C30.941 21.87 31.1779 21.3486 31.5108 20.8896C32.1964 19.9626 33.21 19.3322 34.3446 19.127C35.4792 18.9218 36.6493 19.1572 37.6163 19.7853C37.6336 19.8055 37.651 19.8055 37.6654 19.8228Z" fill="url(#paint3_linear)"/>
<path d="M28.9657 6.98152C29.1988 7.13906 29.471 7.2291 29.752 7.2417C31.6745 7.3053 33.8368 8.68713 35.2447 11.1791C36.6526 13.671 36.3837 17.6344 36.3837 17.6344C36.7537 20.4819 36.56 21.1873 36.56 21.1873C36.0166 24.6939 35.5511 25.1854 34.1259 27.2379C31.8653 30.4872 30.8506 31.6609 30.8506 31.6609C29.5237 33.9418 29.5872 34.5865 29.5872 35.0143C29.5836 35.111 29.5894 35.2079 29.6046 35.3034C29.7809 38.8101 31.2553 39.6397 31.2553 39.6397C31.5126 39.9462 34.0247 41.7616 34.4352 41.8079C38.8501 42.5819 43.219 43.5982 47.5222 44.852C47.3459 43.4441 43.7843 39.0702 40.006 35.023C36.2218 30.996 41.8157 22.2338 40.006 12.4279C39.2052 8.07138 37.6673 4.91454 33.5304 1.92827C29.3936 -1.05801 27.4596 2.54113 27.4596 2.54113C22.2184 -2.05536 17.4571 0.381648 14.2049 3.58185C11.5208 6.23072 9.6458 9.58864 8.79895 13.2634C7.8016 17.5535 6.2492 25.0611 5.52937 32.3981C4.43951 43.6118 1.19305 44.1322 1.19305 45.7106C1.19305 46.9363 1.3694 46.9363 1.3694 46.9363C3.62717 43.9789 6.20873 51.3622 8.51854 56.5716C8.80762 57.2596 10.4728 55.5598 10.7445 56.2189C10.9845 56.7971 9.84834 59.7111 10.0565 60.2315C10.6983 61.8099 11.1955 63.0501 11.4672 63.5733C13.6296 67.7709 19.1136 70.5114 21.2615 71.4452C21.3836 71.4979 21.5212 71.5021 21.6463 71.457C21.7715 71.4119 21.8747 71.3208 21.9351 71.2023C21.9702 71.1102 21.9811 71.0107 21.9669 70.9132C20.3798 62.1972 20.5388 55.3488 21.0216 50.5383C21.5506 45.3608 27.0202 41.779 19.4171 32.3865C18.5499 30.733 18.6193 28.4058 17.9717 27.6253C17.9717 27.6253 16.7055 25.8907 16.5465 25.6479C16.3875 25.4051 15.633 25.3415 14.6067 24.7806C13.5805 24.2198 13.1613 22.8987 13.2133 22.0083C13.3579 19.5424 13.592 20.3518 14.3697 19.0654C15.5578 19.1579 16.9715 18.2328 17.4138 16.9146C22.3283 14.1567 27.6619 8.32577 28.9599 6.97863L28.9657 6.98152ZM17.9515 13.5554C19.0731 12.4511 21.0129 11.1039 22.866 9.90997C20.932 11.4103 19.3131 12.6043 17.9515 13.5554Z" fill="#593D36"/>
<path d="M30.6108 3.39978C30.6108 3.39978 17.9633 18.626 12.9476 17.7674L12.9302 16.9002C12.9302 16.9002 17.6279 18.1201 28.8156 3.75825L30.6108 3.39978Z" fill="#593D36"/>
<path d="M1.7335 46.6155C1.684 46.6122 1.63528 46.6014 1.58895 46.5837C1.55028 46.5685 1.51534 46.5451 1.48652 46.5151C1.4577 46.4852 1.43568 46.4494 1.42196 46.4101C1.40824 46.3709 1.40315 46.3291 1.40702 46.2878C1.41089 46.2464 1.42365 46.2063 1.44441 46.1703C1.49066 46.0778 2.72507 43.7044 7.83903 39.582C11.7186 36.457 13.641 32.8578 13.5861 28.9089C13.5458 27.1465 13.1048 25.4165 12.2968 23.8498C12.2583 23.7801 12.2482 23.6981 12.2687 23.6211C12.2892 23.5441 12.3386 23.4779 12.4066 23.4364C12.4797 23.3992 12.5637 23.3895 12.6434 23.4091C12.723 23.4287 12.7929 23.4764 12.8402 23.5434C13.7114 25.1825 14.1838 27.0039 14.2192 28.8597C14.2828 31.7246 13.3057 35.9828 8.25531 40.0416C3.20495 44.1004 2.03704 46.3987 2.02259 46.4305C1.99744 46.486 1.95675 46.533 1.90544 46.5658C1.85414 46.5986 1.79441 46.6159 1.7335 46.6155V46.6155Z" fill="#442E2A"/>
<path d="M2.42351 46.5232C2.3474 46.521 2.2742 46.4935 2.21537 46.4452C2.18566 46.4204 2.16122 46.39 2.14348 46.3557C2.12575 46.3213 2.11508 46.2837 2.11212 46.2452C2.10915 46.2067 2.11395 46.1679 2.12622 46.1313C2.13849 46.0946 2.15799 46.0608 2.18357 46.0318C5.91858 42.1262 9.18816 42.4471 9.5235 42.4962C9.81259 42.4962 14.3339 42.528 17.0109 38.9723C19.7659 35.3124 15.392 25.8911 15.3602 25.7841C15.2619 25.6453 15.3804 25.9055 15.5221 25.813C15.5934 25.7681 15.6787 25.751 15.7618 25.7648C15.845 25.7787 15.9201 25.8226 15.973 25.8882L16.0193 25.9807C16.213 26.3796 20.4886 35.3587 17.5226 39.3105C14.5565 43.2623 9.68539 43.0918 9.47725 43.0918H9.44545C9.41365 43.0918 6.26548 42.661 2.6808 46.4307C2.60927 46.492 2.51771 46.525 2.42351 46.5232V46.5232Z" fill="#442E2A"/>
<path d="M41.0664 43.2911C39.7823 43.3204 38.5134 43.0082 37.3894 42.3865C36.2654 41.7648 35.3266 40.856 34.6689 39.7527C31.7346 35.0782 33.4836 28.646 33.5646 28.3684C33.6045 28.2941 33.6719 28.2384 33.7523 28.213C33.8328 28.1876 33.92 28.1946 33.9953 28.2326C34.0514 28.2561 34.0986 28.2967 34.1302 28.3486C34.1619 28.4005 34.1764 28.461 34.1716 28.5217C33.8688 29.7621 33.6916 31.0299 33.6426 32.3058C33.5646 34.2832 33.7727 37.1162 35.2297 39.4289C37.9558 43.7797 42.5552 42.5395 42.746 42.4933C42.8237 42.4635 42.9098 42.4642 42.9871 42.4953C43.0643 42.5264 43.1269 42.5856 43.1623 42.6609C43.1915 42.7372 43.1894 42.822 43.1564 42.8968C43.1233 42.9715 43.0621 43.0302 42.9859 43.0599C42.9686 43.0599 42.9541 43.0743 42.9368 43.0743C42.3225 43.2167 41.6941 43.2894 41.0635 43.2911H41.0664Z" fill="#442E2A"/>
<path d="M13.8178 19.392C13.7487 19.3848 13.684 19.355 13.6337 19.3073C13.5833 19.2595 13.5501 19.1965 13.5392 19.128C13.5284 19.0594 13.5404 18.9892 13.5735 18.9282C13.6066 18.8672 13.659 18.8189 13.7224 18.7907H13.7397C19.5215 17.2441 26.8498 14.4717 29.0613 9.93593C30.1194 7.76199 29.5123 6.13732 29.4314 5.9234L27.1187 2.79836C27.0952 2.76492 27.0787 2.72713 27.0701 2.68722C27.0615 2.64731 27.061 2.60608 27.0685 2.56595C27.076 2.52583 27.0915 2.48761 27.114 2.45355C27.1366 2.41949 27.1657 2.39027 27.1996 2.36762C27.2706 2.3226 27.3559 2.30565 27.4387 2.32008C27.5216 2.33451 27.5961 2.37929 27.6477 2.44567L29.9893 5.59962C29.9893 5.61696 29.9893 5.63142 30.0211 5.64587C30.0529 5.72393 30.9173 7.62323 29.6684 10.1961C27.3557 14.9314 19.8394 17.8107 13.9276 19.3891C13.8952 19.3961 13.8617 19.3961 13.8293 19.3891L13.8178 19.392Z" fill="#442E2A"/>
<path d="M14.1245 19.2972C14.0699 19.2931 14.0172 19.275 13.9716 19.2447C13.926 19.2143 13.8891 19.1726 13.8643 19.1237C13.8319 19.0514 13.8286 18.9693 13.8549 18.8946C13.8813 18.8198 13.9354 18.758 14.006 18.7219C27.4023 12.6511 29.9896 5.56843 30.0272 5.49326C30.0427 5.41205 30.0882 5.33962 30.1546 5.29036C30.221 5.24109 30.3035 5.21858 30.3857 5.2273C30.4696 5.23465 30.5472 5.27501 30.6014 5.33951C30.6556 5.404 30.682 5.48738 30.6748 5.57132C30.6707 5.60898 30.6568 5.64489 30.6343 5.67539C30.6112 5.75055 29.9492 7.56024 27.6075 10.1562C25.4394 12.5325 21.3922 16.0305 14.2893 19.2625C14.2662 19.2803 14.2394 19.2927 14.2109 19.2987C14.1823 19.3047 14.1528 19.3042 14.1245 19.2972Z" fill="#442E2A"/>
<path d="M13.5594 17.1893C13.5086 17.1819 13.4606 17.1612 13.4205 17.1292C13.3804 17.0972 13.3495 17.0551 13.331 17.0072C13.3063 16.9369 13.3096 16.8598 13.3403 16.792C13.371 16.7241 13.4267 16.6707 13.4958 16.6429C26.4845 12.0753 29.4794 5.68648 29.5199 5.62288C29.541 5.54842 29.5891 5.48456 29.655 5.44389C29.7208 5.40321 29.7995 5.38869 29.8755 5.40318C29.9135 5.41008 29.9498 5.42453 29.9821 5.44568C30.0144 5.46684 30.0422 5.49426 30.0638 5.52633C30.0853 5.55841 30.1003 5.59448 30.1076 5.63241C30.115 5.67034 30.1147 5.70937 30.1067 5.74719C30.1001 5.78111 30.0852 5.81288 30.0634 5.8397C30.0345 5.90908 29.2713 7.54243 26.8834 9.7684C24.6748 11.8094 20.5987 14.7436 13.7155 17.1719C13.6921 17.1856 13.6662 17.1942 13.6393 17.1971C13.6124 17.2001 13.5852 17.1974 13.5594 17.1893V17.1893Z" fill="#442E2A"/>
<path d="M48.1209 44.8666C48.0895 44.8736 48.0569 44.8736 48.0255 44.8666C40.0438 42.2937 37.2223 36.5033 36.2597 32.1207C35.629 29.1624 35.6675 26.1005 36.3724 23.159C36.3924 23.0764 36.4436 23.0046 36.5152 22.9589C36.5869 22.9131 36.6735 22.8967 36.7569 22.9133C36.7981 22.9206 36.8375 22.936 36.8728 22.9586C36.908 22.9812 36.9385 23.0105 36.9624 23.0449C36.9863 23.0792 37.0032 23.118 37.0121 23.1589C37.021 23.1999 37.0217 23.2421 37.0142 23.2833C36.5169 26.1742 36.2915 29.1489 36.9014 32.0282C38.263 38.1887 42.079 42.3082 48.2337 44.3C48.3105 44.3259 48.3747 44.38 48.4134 44.4513C48.452 44.5226 48.4621 44.6059 48.4418 44.6845C48.4123 44.7431 48.3661 44.7917 48.309 44.8241C48.2519 44.8566 48.1864 44.8713 48.1209 44.8666V44.8666Z" fill="#442E2A"/>
<path d="M22.4554 17.1174C22.3918 17.0972 22.4149 17.022 22.4785 17.0278C23.0301 17.1358 23.5904 17.1929 24.1523 17.1983C24.5311 17.1232 25.8204 17.0769 26.2916 17.577C26.5114 17.8292 26.6758 18.1247 26.7744 18.4443C26.7975 18.5368 26.6934 18.6207 26.5691 18.5802C25.9273 18.4038 23.7736 17.6696 23.8806 17.7129C23.4185 17.4897 22.9424 17.2966 22.4554 17.1347V17.1174Z" fill="#593D36"/>
<path d="M36.2725 19.0311C36.339 19.0311 36.3274 18.9588 36.2725 18.9386C35.7907 18.9043 35.3133 18.823 34.8473 18.6957C34.5582 18.5339 33.4944 18.1841 32.9943 18.5425C32.7428 18.7231 32.5345 18.957 32.3843 19.2277C32.3702 19.2596 32.369 19.2957 32.3808 19.3286C32.3926 19.3614 32.4167 19.3884 32.4479 19.404C32.4652 19.404 32.497 19.4214 32.5144 19.404C33.0607 19.404 34.4281 19.404 34.9427 19.2219C35.3813 19.1289 35.8255 19.0652 36.2725 19.0311V19.0311Z" fill="#593D36"/>
<path d="M0.343117 45.3692C0.264896 45.3715 0.18852 45.3451 0.128359 45.2951C0.0681978 45.2451 0.0283981 45.1748 0.0164477 45.0974C-0.133878 43.652 0.704476 42.5997 4.26603 38.1593L4.87023 37.3932C7.65414 33.9242 7.96057 29.5879 8.17161 26.431C8.22943 25.5869 8.29013 24.789 8.38553 24.1183C8.46359 23.4881 8.51273 22.8579 8.54453 22.2595C8.61102 20.9846 9.25569 18.5939 12.8519 16.9547C12.9219 16.9076 13.0069 16.8883 13.0903 16.9006C13.1737 16.9129 13.2496 16.9559 13.3029 17.0212C13.3273 17.0538 13.3449 17.091 13.3546 17.1305C13.3643 17.17 13.366 17.2111 13.3595 17.2513C13.353 17.2915 13.3386 17.33 13.3169 17.3644C13.2953 17.3989 13.2669 17.4287 13.2335 17.452L13.1381 17.5011C9.84253 19.0015 9.2499 21.132 9.18631 22.2826C9.15451 22.8955 9.12271 23.5401 9.02731 24.1877C8.93191 24.8353 8.88855 25.6331 8.82784 26.4744C8.60524 29.7151 8.3017 34.1641 5.39348 37.7633L4.78639 38.5293C1.35203 42.7992 0.528133 43.8168 0.655331 45.0251C0.660618 45.0629 0.658369 45.1014 0.648713 45.1383C0.639058 45.1753 0.622187 45.2099 0.599074 45.2403C0.575961 45.2706 0.547063 45.2961 0.514048 45.3153C0.481033 45.3344 0.444554 45.3468 0.406716 45.3518C0.38424 45.3509 0.362041 45.357 0.343117 45.3692V45.3692Z" fill="#442E2A"/>
<path d="M64.2452 75.4142L68.2693 82.465L26.6176 94.1384C22.8363 94.8611 17.9883 88.9637 17.3957 85.8589L17.2916 85.3039C16.7135 82.202 20.5872 83.0721 24.3685 82.3494L64.2452 75.4142Z" fill="#E2645A"/>
<path d="M54.3209 81.3781C54.6585 79.9436 55.3651 78.6222 56.3706 77.5448C57.3737 76.4665 58.5098 76.8365 60.6548 76.4145C62.3894 76.0705 64.3089 74.8823 65.6474 75.2928C67.5105 75.8755 69.1934 76.9254 70.5358 78.3427L72.2704 79.1261L54.3209 81.3781Z" fill="#F7D4BC"/>
<path d="M70.0749 78.7044C70.7514 77.3959 71.7579 76.2868 72.9947 75.4868C74.232 74.686 75.2438 75.322 77.4264 75.4377C79.2043 75.5331 81.3435 74.845 82.5432 75.5706C84.2045 76.5957 85.5758 78.0288 86.5269 79.7335L88.0157 80.9188L70.0749 78.7044Z" fill="#F7D4BC"/>
<path d="M79.7305 78.6523L54.5336 80.78L53.0101 81.5924C52.0474 83.0176 53.2385 84.807 55.1522 84.807H90.2879L79.7305 78.6523Z" fill="white" stroke="#AEB6C1" stroke-width="0.48" stroke-miterlimit="10"/>
<path d="M127.556 84.8065H79.8562C78.3269 84.8065 77.2688 83.2137 77.8123 81.7249L89.6649 49.2892C89.8134 48.8641 90.0893 48.4951 90.455 48.2323C90.8207 47.9695 91.2585 47.8258 91.7088 47.8207H139.408C140.94 47.8207 142.01 49.4164 141.455 50.9052L129.602 83.3409C129.453 83.7659 129.177 84.1347 128.81 84.397C128.444 84.6592 128.006 84.8022 127.556 84.8065V84.8065Z" fill="white" stroke="#AEB6C1" stroke-width="0.48" stroke-miterlimit="10"/>
<path d="M131.314 84.8064H83.6149C82.0856 84.8064 81.0276 83.2136 81.571 81.7248L93.4236 49.2891C93.5723 48.8635 93.8486 48.4941 94.2149 48.2313C94.5812 47.9685 95.0196 47.8251 95.4704 47.8206H143.17C144.702 47.8206 145.772 49.4163 145.217 50.9051L133.364 83.3408C133.214 83.766 132.937 84.1349 132.571 84.3971C132.204 84.6594 131.765 84.8023 131.314 84.8064V84.8064Z" fill="white" stroke="#AEB6C1" stroke-width="0.48" stroke-miterlimit="10"/>
<path d="M136.675 84.0552L149.747 48.2777C150.345 46.6357 149.169 44.8781 147.492 44.8781H94.8898" stroke="#86D0CB" stroke-width="1.43" stroke-miterlimit="10" stroke-linecap="round" stroke-dasharray="23.76 0.48 4.75 4.75 52.28 23.76 0.48 4.75"/>
<path d="M117.588 67.1667C115.703 70.1934 113.83 71.6042 112.422 71.3498C111.555 71.1937 108.488 68.1987 108.057 66.2214C107.768 64.9378 108.467 63.2582 109.609 62.9287C111.954 62.2493 112.731 64.5822 113.078 64.6111C113.506 64.6487 114.385 62.6078 116.177 63.2235C118.236 63.9318 118.314 66.0045 117.588 67.1667Z" fill="white" stroke="#AEB6C1" stroke-width="0.48" stroke-miterlimit="10"/>
<path d="M21.6787 85.628C21.6787 85.628 21.459 82.7632 25.1477 81.5808C28.8365 80.3984 35.1964 79.3259 35.1964 79.3259" stroke="white" stroke-width="1.78" stroke-linecap="round" stroke-linejoin="round" stroke-dasharray="24.75 0.49 4.95 4.95 54.44 24.75 0.49 4.95"/>
<path d="M23.9339 66.8807L27.4521 79.404" stroke="white" stroke-width="1.78" stroke-linecap="round" stroke-linejoin="round" stroke-dasharray="24.75 0.49 4.95 4.95 54.44 24.75 0.49 4.95"/>
<path d="M22.1027 46.0345C22.1027 46.0345 31.7698 48.8444 34.7994 48.3038C37.829 47.7632 39.3901 43.291 39.3901 43.291L40.1533 49.2202L41.8184 53.5132H33.4176L22.1027 46.0345Z" fill="white"/>
<defs>
<linearGradient id="paint0_linear" x1="23.9715" y1="45.8638" x2="23.9715" y2="27.8449" gradientUnits="userSpaceOnUse">
<stop stop-color="white" stop-opacity="0"/>
<stop offset="0.02" stop-color="#F9F1F0" stop-opacity="0"/>
<stop offset="0.1" stop-color="#E6C8C5" stop-opacity="0.02"/>
<stop offset="0.19" stop-color="#D6A49E" stop-opacity="0.04"/>
<stop offset="0.28" stop-color="#C8867E" stop-opacity="0.06"/>
<stop offset="0.38" stop-color="#BC6D64" stop-opacity="0.08"/>
<stop offset="0.49" stop-color="#B45A4F" stop-opacity="0.1"/>
<stop offset="0.61" stop-color="#AE4C41" stop-opacity="0.12"/>
<stop offset="0.76" stop-color="#AA4439" stop-opacity="0.15"/>
<stop offset="1" stop-color="#A94236" stop-opacity="0.2"/>
</linearGradient>
<linearGradient id="paint1_linear" x1="21.2362" y1="27.1908" x2="22.6546" y2="18.7183" gradientUnits="userSpaceOnUse">
<stop stop-color="white" stop-opacity="0"/>
<stop offset="0.05" stop-color="#FFF0F0" stop-opacity="0"/>
<stop offset="0.23" stop-color="#FFB8B8" stop-opacity="0.02"/>
<stop offset="0.41" stop-color="#FF8989" stop-opacity="0.04"/>
<stop offset="0.58" stop-color="#FF6565" stop-opacity="0.06"/>
<stop offset="0.74" stop-color="#FF4B4B" stop-opacity="0.07"/>
<stop offset="0.89" stop-color="#FF3B3B" stop-opacity="0.09"/>
<stop offset="1" stop-color="#FF3636" stop-opacity="0.1"/>
</linearGradient>
<linearGradient id="paint2_linear" x1="27.4889" y1="35.1551" x2="28.1983" y2="30.9174" gradientUnits="userSpaceOnUse">
<stop stop-color="white" stop-opacity="0"/>
<stop offset="1" stop-color="#FF3636" stop-opacity="0.1"/>
</linearGradient>
<linearGradient id="paint3_linear" x1="32.4133" y1="27.6218" x2="37.3911" y2="20.5238" gradientUnits="userSpaceOnUse">
<stop stop-color="white" stop-opacity="0"/>
<stop offset="0.07" stop-color="#FFE9E9" stop-opacity="0.01"/>
<stop offset="0.24" stop-color="#FFB3B3" stop-opacity="0.02"/>
<stop offset="0.42" stop-color="#FF8686" stop-opacity="0.04"/>
<stop offset="0.59" stop-color="#FF6363" stop-opacity="0.06"/>
<stop offset="0.74" stop-color="#FF4A4A" stop-opacity="0.07"/>
<stop offset="0.88" stop-color="#FF3B3B" stop-opacity="0.09"/>
<stop offset="1" stop-color="#FF3636" stop-opacity="0.1"/>
</linearGradient>
</defs>
</svg>
