<svg width="156" height="118" viewBox="0 0 156 118" fill="none" xmlns="http://www.w3.org/2000/svg">
<path d="M88.9241 67.4675C88.7012 67.4675 88.4874 67.3789 88.3297 67.2213C88.1721 67.0637 88.0835 66.8498 88.0835 66.6269V45.742C88.117 43.546 87.7133 41.3652 86.896 39.3267C86.0788 37.2881 84.8643 35.4324 83.3231 33.8677C81.782 32.3029 79.945 31.0602 77.9191 30.212C75.8932 29.3638 73.7189 28.927 71.5226 28.927C69.3263 28.927 67.152 29.3638 65.1261 30.212C63.1002 31.0602 61.2632 32.3029 59.7221 33.8677C58.181 35.4324 56.9664 37.2881 56.1492 39.3267C55.3319 41.3652 54.9282 43.546 54.9617 45.742V66.6115C54.9473 66.8252 54.8522 67.0253 54.6958 67.1716C54.5394 67.3178 54.3333 67.3991 54.1191 67.3991C53.905 67.3991 53.6989 67.3178 53.5425 67.1716C53.3861 67.0253 53.291 66.8252 53.2766 66.6115V45.742C53.2766 40.9034 55.1988 36.2629 58.6202 32.8415C62.0416 29.4201 66.6821 27.4979 71.5207 27.4979C76.3593 27.4979 80.9998 29.4201 84.4212 32.8415C87.8426 36.2629 89.7648 40.9034 89.7648 45.742V66.6269C89.7648 66.8498 89.6762 67.0637 89.5186 67.2213C89.3609 67.3789 89.1471 67.4675 88.9241 67.4675Z" fill="#68BFB7"/>
<path opacity="0.73" d="M44.274 64.5808H41.9709C41.2046 64.5778 40.4706 64.2718 39.9291 63.7295C39.3876 63.1873 39.0826 62.4529 39.0806 61.6866V41.1894C39.0826 40.4235 39.3878 39.6895 39.9294 39.1479C40.471 38.6063 41.205 38.3011 41.9709 38.2991H44.274C45.0399 38.3011 45.7739 38.6063 46.3155 39.1479C46.8571 39.6895 47.1623 40.4235 47.1643 41.1894V61.6866C47.1623 62.4529 46.8572 63.1873 46.3157 63.7295C45.7742 64.2718 45.0403 64.5778 44.274 64.5808Z" fill="#63AA90"/>
<path d="M71.8098 26.8494C72.0332 26.4823 72.348 26.1794 72.7234 25.9704C73.0415 25.8026 73.402 25.7324 73.7598 25.7686C74.1176 25.8047 74.4567 25.9457 74.7347 26.1738C74.9522 26.3685 75.1231 26.6097 75.2348 26.8795C75.3464 27.1493 75.3959 27.4407 75.3796 27.7322C75.3949 28.39 75.185 29.0333 74.7846 29.5555C74.4421 30.0462 74.0129 30.4703 73.518 30.8068C73.1341 31.0947 72.5353 31.4862 71.8598 31.8892H71.7791C71.0844 31.5054 70.4933 31.1215 70.0864 30.8605C69.3199 30.3802 68.7186 29.677 68.3629 28.8453C67.887 27.6132 68.2439 26.6805 68.7468 26.2582C69.0179 26.0197 69.3537 25.8668 69.7117 25.819C70.0697 25.7712 70.4338 25.8305 70.7581 25.9895C71.1427 26.1842 71.4656 26.4819 71.6909 26.8494" fill="white"/>
<path d="M49.9579 67.2525H35.6521C35.5625 67.2525 35.4766 67.2169 35.4133 67.1535C35.3499 67.0902 35.3143 67.0043 35.3143 66.9147C35.3143 66.8251 35.3499 66.7392 35.4133 66.6758C35.4766 66.6125 35.5625 66.5769 35.6521 66.5769H49.9579C50.0475 66.5769 50.1335 66.6125 50.1968 66.6758C50.2601 66.7392 50.2957 66.8251 50.2957 66.9147C50.2957 67.0043 50.2601 67.0902 50.1968 67.1535C50.1335 67.2169 50.0475 67.2525 49.9579 67.2525Z" fill="#63AA90"/>
<path d="M106.821 67.2525H92.5071C92.4175 67.2525 92.3316 67.2169 92.2682 67.1535C92.2049 67.0902 92.1693 67.0043 92.1693 66.9147C92.1693 66.8251 92.2049 66.7392 92.2682 66.6758C92.3316 66.6125 92.4175 66.5769 92.5071 66.5769H106.817C106.906 66.5769 106.992 66.6125 107.056 66.6758C107.119 66.7392 107.155 66.8251 107.155 66.9147C107.155 67.0043 107.119 67.0902 107.056 67.1535C106.992 67.2169 106.906 67.2525 106.817 67.2525H106.821Z" fill="#63AA90"/>
<path d="M85.3542 67.2522H57.8903C57.8007 67.2522 57.7148 67.2166 57.6514 67.1533C57.5881 67.0899 57.5525 67.004 57.5525 66.9144C57.5525 66.8249 57.5881 66.7389 57.6514 66.6756C57.7148 66.6122 57.8007 66.5767 57.8903 66.5767H85.3542C85.4438 66.5767 85.5297 66.6122 85.5931 66.6756C85.6564 66.7389 85.692 66.8249 85.692 66.9144C85.692 67.004 85.6564 67.0899 85.5931 67.1533C85.5297 67.2166 85.4438 67.2522 85.3542 67.2522Z" fill="#63AA90"/>
<path d="M43.0266 66.0665C42.934 66.066 42.8434 66.0404 42.7643 65.9924C42.6852 65.9444 42.6206 65.8758 42.5775 65.794L39.856 60.5507C39.7944 60.4321 39.7825 60.2939 39.8228 60.1664C39.8631 60.039 39.9524 59.9328 40.071 59.8713C40.1896 59.8097 40.3278 59.7977 40.4552 59.838C40.5826 59.8783 40.6888 59.9676 40.7504 60.0862L42.5199 63.4947V43.4735C42.5309 43.3472 42.5889 43.2297 42.6823 43.144C42.7757 43.0584 42.8979 43.0109 43.0246 43.0109C43.1514 43.0109 43.2735 43.0584 43.367 43.144C43.4604 43.2297 43.5184 43.3472 43.5294 43.4735V65.5598C43.53 65.673 43.4925 65.783 43.4228 65.8721C43.3532 65.9613 43.2555 66.0244 43.1456 66.0511C43.1068 66.0619 43.0668 66.0671 43.0266 66.0665Z" fill="#63AA90"/>
<path d="M43.0724 61.449C43.0081 61.4487 42.9445 61.437 42.8843 61.4144C42.8225 61.3895 42.7662 61.3527 42.7187 61.306C42.6712 61.2593 42.6333 61.2038 42.6073 61.1424C42.5813 61.0811 42.5676 61.0153 42.567 60.9486C42.5665 60.882 42.5791 60.816 42.6041 60.7542L44.6845 55.6146C44.7075 55.5499 44.7433 55.4906 44.7898 55.4402C44.8363 55.3899 44.8926 55.3495 44.9552 55.3215C45.0178 55.2935 45.0855 55.2785 45.1541 55.2774C45.2226 55.2763 45.2907 55.2892 45.3542 55.3152C45.4176 55.3412 45.4751 55.3798 45.5232 55.4287C45.5713 55.4776 45.609 55.5357 45.634 55.5996C45.6589 55.6635 45.6706 55.7318 45.6684 55.8003C45.6662 55.8689 45.6501 55.9363 45.6211 55.9984L43.5407 61.1381C43.502 61.2303 43.4369 61.3091 43.3536 61.3644C43.2703 61.4197 43.1724 61.4492 43.0724 61.449Z" fill="#63AA90"/>
<path d="M42.8006 55.5988C42.7045 55.5993 42.6102 55.5721 42.5292 55.5204C42.4482 55.4686 42.3838 55.3945 42.3439 55.3071L40.298 50.9773C40.241 50.8567 40.2342 50.7183 40.2792 50.5927C40.3242 50.4671 40.4173 50.3645 40.5379 50.3075C40.6585 50.2505 40.7969 50.2437 40.9225 50.2887C41.0481 50.3337 41.1507 50.4268 41.2077 50.5474L43.2574 54.8695C43.2859 54.9294 43.3023 54.9944 43.3055 55.0607C43.3088 55.127 43.2989 55.1933 43.2764 55.2557C43.2539 55.3182 43.2193 55.3755 43.1745 55.4245C43.1298 55.4735 43.0758 55.5132 43.0156 55.5412C42.9495 55.5771 42.8758 55.5969 42.8006 55.5988Z" fill="#63AA90"/>
<path d="M43.173 50.5398C43.1113 50.5391 43.0502 50.5274 42.9926 50.5053C42.9307 50.4815 42.8742 50.4457 42.8262 50.4C42.7782 50.3543 42.7397 50.2995 42.7129 50.2389C42.6862 50.1782 42.6717 50.1129 42.6703 50.0466C42.6689 49.9803 42.6806 49.9144 42.7047 49.8527L44.7851 44.4789C44.836 44.3542 44.9344 44.2548 45.0586 44.2026C45.1827 44.1504 45.3226 44.1497 45.4473 44.2006C45.572 44.2515 45.6714 44.3499 45.7235 44.4741C45.7757 44.5982 45.7765 44.738 45.7256 44.8628L43.6451 50.2366C43.6051 50.328 43.5389 50.4056 43.4549 50.4595C43.3709 50.5135 43.2728 50.5414 43.173 50.5398Z" fill="#63AA90"/>
<path d="M40.7246 53.6375C41.1359 53.6375 41.4693 53.3041 41.4693 52.8929C41.4693 52.4816 41.1359 52.1482 40.7246 52.1482C40.3134 52.1482 39.98 52.4816 39.98 52.8929C39.98 53.3041 40.3134 53.6375 40.7246 53.6375Z" fill="#E2645A"/>
<path d="M45.3904 58.508C45.8017 58.508 46.1351 58.1746 46.1351 57.7633C46.1351 57.3521 45.8017 57.0187 45.3904 57.0187C44.9791 57.0187 44.6458 57.3521 44.6458 57.7633C44.6458 58.1746 44.9791 58.508 45.3904 58.508Z" fill="#E2645A"/>
<path d="M40.2516 62.8379C40.6629 62.8379 40.9963 62.5046 40.9963 62.0933C40.9963 61.682 40.6629 61.3486 40.2516 61.3486C39.8404 61.3486 39.507 61.682 39.507 62.0933C39.507 62.5046 39.8404 62.8379 40.2516 62.8379Z" fill="#E2645A"/>
<path d="M45.3042 48.0914C45.7155 48.0914 46.0489 47.758 46.0489 47.3467C46.0489 46.9354 45.7155 46.6021 45.3042 46.6021C44.893 46.6021 44.5596 46.9354 44.5596 47.3467C44.5596 47.758 44.893 48.0914 45.3042 48.0914Z" fill="#E2645A"/>
<path opacity="0.73" d="M98.432 64.5811H100.735C101.501 64.5781 102.235 64.272 102.777 63.7298C103.318 63.1876 103.623 62.4532 103.625 61.6869V41.1743C103.623 40.408 103.318 39.6736 102.777 39.1314C102.235 38.5892 101.501 38.2832 100.735 38.2802H98.432C97.6657 38.2832 96.9317 38.5892 96.3902 39.1314C95.8487 39.6736 95.5437 40.408 95.5416 41.1743V61.6716C95.5381 62.053 95.6103 62.4314 95.754 62.7847C95.8978 63.1381 96.1102 63.4594 96.3791 63.73C96.6479 64.0007 96.9678 64.2153 97.3202 64.3613C97.6726 64.5074 98.0505 64.5821 98.432 64.5811Z" fill="#63AA90"/>
<path d="M99.6678 66.0665C99.6283 66.0723 99.5882 66.0723 99.5488 66.0665C99.4392 66.0391 99.3419 65.9759 99.2723 65.8869C99.2028 65.7978 99.165 65.6881 99.1649 65.5752V43.4735C99.1759 43.3472 99.2339 43.2297 99.3273 43.144C99.4208 43.0584 99.5429 43.0109 99.6697 43.0109C99.7964 43.0109 99.9186 43.0584 100.012 43.144C100.105 43.2297 100.163 43.3472 100.174 43.4735V63.4947L101.944 60.0862C102.01 59.9761 102.116 59.8953 102.24 59.8603C102.364 59.8254 102.496 59.8388 102.611 59.8979C102.725 59.9569 102.812 60.0573 102.855 60.1785C102.898 60.2997 102.894 60.4328 102.842 60.5507L100.121 65.794C100.077 65.8764 100.012 65.9454 99.9322 65.9934C99.8524 66.0415 99.7609 66.0667 99.6678 66.0665Z" fill="#63AA90"/>
<path d="M99.6149 61.4488C99.5143 61.4492 99.4159 61.4194 99.3324 61.3633C99.2489 61.3072 99.1842 61.2273 99.1466 61.134L97.0661 55.9944C97.0371 55.9322 97.021 55.8649 97.0188 55.7963C97.0166 55.7278 97.0283 55.6595 97.0533 55.5956C97.0783 55.5317 97.1159 55.4736 97.164 55.4247C97.2121 55.3758 97.2696 55.3372 97.3331 55.3112C97.3965 55.2852 97.4646 55.2723 97.5332 55.2734C97.6018 55.2745 97.6694 55.2894 97.732 55.3174C97.7946 55.3454 97.8509 55.3858 97.8974 55.4362C97.944 55.4866 97.9798 55.5459 98.0027 55.6105L100.083 60.7502C100.133 60.875 100.131 61.0142 100.079 61.1378C100.026 61.2614 99.9271 61.3593 99.803 61.4104C99.743 61.4343 99.6793 61.4473 99.6149 61.4488Z" fill="#63AA90"/>
<path d="M99.8849 55.599C99.8104 55.5994 99.7367 55.5823 99.67 55.5491C99.6078 55.5222 99.5518 55.483 99.5052 55.4339C99.4585 55.3848 99.4223 55.3268 99.3986 55.2633C99.375 55.1999 99.3644 55.1323 99.3675 55.0647C99.3706 54.997 99.3873 54.9307 99.4166 54.8697L101.463 50.5399C101.526 50.4302 101.629 50.3482 101.75 50.3104C101.871 50.2726 102.002 50.2816 102.117 50.3356C102.231 50.3896 102.322 50.4848 102.37 50.6022C102.418 50.7196 102.42 50.8508 102.376 50.9698L100.33 55.2996C100.292 55.3864 100.23 55.4607 100.151 55.5136C100.072 55.5666 99.9798 55.5962 99.8849 55.599Z" fill="#63AA90"/>
<path d="M99.5075 50.5399C99.4059 50.5403 99.3066 50.5096 99.223 50.4519C99.1393 50.3943 99.0752 50.3125 99.0392 50.2175L96.9588 44.8437C96.9336 44.782 96.9208 44.7159 96.9211 44.6492C96.9215 44.5825 96.935 44.5165 96.9608 44.455C96.9867 44.3935 97.0244 44.3377 97.0718 44.2908C97.1192 44.2439 97.1753 44.2068 97.2371 44.1816C97.2988 44.1564 97.3649 44.1436 97.4316 44.1439C97.4983 44.1443 97.5643 44.1577 97.6258 44.1836C97.6873 44.2094 97.7431 44.2471 97.79 44.2945C97.8369 44.3419 97.874 44.3981 97.8992 44.4599L99.9797 49.8337C100.027 49.9584 100.024 50.097 99.97 50.2192C99.9161 50.3414 99.8161 50.4373 99.6918 50.4862C99.6342 50.5153 99.5717 50.5336 99.5075 50.5399Z" fill="#63AA90"/>
<path d="M101.963 53.6375C102.374 53.6375 102.707 53.3041 102.707 52.8929C102.707 52.4816 102.374 52.1482 101.963 52.1482C101.552 52.1482 101.218 52.4816 101.218 52.8929C101.218 53.3041 101.552 53.6375 101.963 53.6375Z" fill="#E2645A"/>
<path d="M97.2986 58.508C97.7099 58.508 98.0433 58.1746 98.0433 57.7633C98.0433 57.3521 97.7099 57.0187 97.2986 57.0187C96.8873 57.0187 96.554 57.3521 96.554 57.7633C96.554 58.1746 96.8873 58.508 97.2986 58.508Z" fill="#E2645A"/>
<path d="M102.456 62.8379C102.867 62.8379 103.2 62.5046 103.2 62.0933C103.2 61.682 102.867 61.3486 102.456 61.3486C102.044 61.3486 101.711 61.682 101.711 62.0933C101.711 62.5046 102.044 62.8379 102.456 62.8379Z" fill="#E2645A"/>
<path d="M97.3861 48.0914C97.7974 48.0914 98.1308 47.758 98.1308 47.3467C98.1308 46.9354 97.7974 46.6021 97.3861 46.6021C96.9749 46.6021 96.6415 46.9354 96.6415 47.3467C96.6415 47.758 96.9749 48.0914 97.3861 48.0914Z" fill="#E2645A"/>
<path d="M77.8161 57.0346H64.8729C64.6925 57.0058 64.5284 56.9136 64.4098 56.7747C64.2913 56.6358 64.2262 56.4591 64.2262 56.2765C64.2262 56.0938 64.2913 55.9172 64.4098 55.7783C64.5284 55.6393 64.6925 55.5472 64.8729 55.5184H77.8276C77.9373 55.5009 78.0494 55.5074 78.1563 55.5374C78.2632 55.5675 78.3623 55.6203 78.4468 55.6924C78.5313 55.7645 78.5991 55.854 78.6457 55.9549C78.6922 56.0557 78.7163 56.1654 78.7163 56.2765C78.7163 56.3875 78.6922 56.4973 78.6457 56.5981C78.5991 56.6989 78.5313 56.7885 78.4468 56.8605C78.3623 56.9326 78.2632 56.9855 78.1563 57.0155C78.0494 57.0456 77.9373 57.0521 77.8276 57.0346H77.8161Z" fill="#E2645A"/>
<path d="M66.4017 67.671C66.1981 67.671 66.0029 67.5901 65.8589 67.4461C65.7149 67.3022 65.634 67.1069 65.634 66.9033V56.8504C65.6652 56.6725 65.7581 56.5113 65.8964 56.3951C66.0347 56.2789 66.2096 56.2152 66.3902 56.2152C66.5708 56.2152 66.7457 56.2789 66.884 56.3951C67.0223 56.5113 67.1152 56.6725 67.1464 56.8504V66.9148C67.1435 67.1125 67.0645 67.3014 66.9258 67.4423C66.787 67.5831 66.5993 67.6651 66.4017 67.671Z" fill="#E2645A"/>
<path d="M76.4618 67.6708C76.2582 67.6708 76.0629 67.59 75.9189 67.446C75.775 67.302 75.6941 67.1068 75.6941 66.9032V56.8503C75.7229 56.67 75.815 56.5058 75.954 56.3872C76.0929 56.2687 76.2696 56.2036 76.4522 56.2036C76.6348 56.2036 76.8115 56.2687 76.9504 56.3872C77.0893 56.5058 77.1815 56.67 77.2103 56.8503V66.9147C77.2074 67.113 77.1278 67.3025 76.9883 67.4434C76.8487 67.5844 76.6601 67.6659 76.4618 67.6708Z" fill="#E2645A"/>
<path d="M71.8777 26.765C72.1077 26.3889 72.4267 26.0752 72.8066 25.8515C73.1333 25.6777 73.5046 25.6056 73.8726 25.6446C74.2406 25.6836 74.5886 25.8318 74.8716 26.0703C75.0902 26.2713 75.2622 26.5177 75.3756 26.7922C75.489 27.0667 75.541 27.3627 75.528 27.6594C75.5192 28.3318 75.3079 28.9859 74.9215 29.5364C74.5637 30.0304 74.1297 30.4644 73.6357 30.8222C73.2518 31.1101 72.6377 31.517 71.9429 31.9392H71.8777C71.1675 31.5554 70.5572 31.1715 70.1504 30.8913C69.3686 30.4039 68.7551 29.6885 68.3924 28.8416C67.9202 27.5903 68.2734 26.6268 68.7762 26.2046C69.0538 25.96 69.3971 25.8023 69.7636 25.7511C70.13 25.6999 70.5034 25.7575 70.8374 25.9167C71.2194 26.1197 71.5431 26.417 71.7779 26.7804" stroke="#E2645A" stroke-linecap="round" stroke-linejoin="round"/>
<path d="M137.472 54.6701H137.437C136.769 54.4935 136.09 54.2863 135.418 54.0982C135.385 54.0884 135.357 54.066 135.341 54.0358C135.324 54.0056 135.32 53.9701 135.33 53.937C135.34 53.9045 135.363 53.8773 135.393 53.8609C135.423 53.8445 135.458 53.8402 135.491 53.8487C136.163 54.0521 136.838 54.2325 137.502 54.4206C137.52 54.4225 137.536 54.4278 137.551 54.4362C137.566 54.4446 137.58 54.4559 137.59 54.4695C137.601 54.483 137.609 54.4986 137.614 54.5152C137.618 54.5319 137.62 54.5493 137.618 54.5665C137.613 54.6005 137.595 54.6312 137.567 54.6521C137.54 54.6729 137.506 54.6822 137.472 54.6778V54.6701ZM129.388 51.9371C129.371 51.9408 129.354 51.9408 129.338 51.9371C128.49 51.5917 127.611 51.2155 126.728 50.824C126.712 50.817 126.697 50.8068 126.685 50.794C126.673 50.7812 126.664 50.7661 126.658 50.7496C126.652 50.7331 126.649 50.7156 126.65 50.698C126.651 50.6805 126.655 50.6633 126.663 50.6474C126.669 50.6319 126.679 50.6179 126.691 50.6062C126.703 50.5945 126.718 50.5854 126.733 50.5793C126.749 50.5732 126.766 50.5703 126.783 50.5708C126.8 50.5713 126.816 50.5752 126.832 50.5822C127.711 50.966 128.59 51.3499 129.434 51.6953C129.45 51.7008 129.465 51.7096 129.477 51.721C129.49 51.7325 129.5 51.7464 129.507 51.7619C129.513 51.7774 129.517 51.7942 129.517 51.8111C129.517 51.828 129.514 51.8448 129.507 51.8604C129.497 51.8836 129.48 51.9033 129.459 51.9169C129.438 51.9306 129.413 51.9377 129.388 51.9371ZM28.0533 51.5763C27.1084 51.4875 26.1691 51.3466 25.2397 51.1541C25.2233 51.1509 25.2077 51.1445 25.1938 51.1352C25.1799 51.1259 25.1679 51.114 25.1587 51.1001C25.1494 51.0861 25.1429 51.0705 25.1397 51.0541C25.1365 51.0377 25.1366 51.0208 25.1399 51.0044C25.1474 50.9707 25.1674 50.9412 25.196 50.9219C25.2246 50.9026 25.2595 50.895 25.2935 50.9008C26.2125 51.0922 27.1416 51.2319 28.0764 51.3192C28.1099 51.3221 28.1412 51.3375 28.164 51.3624C28.1867 51.3872 28.1993 51.4198 28.1992 51.4535C28.1982 51.4707 28.1938 51.4874 28.1864 51.5029C28.1789 51.5184 28.1684 51.5322 28.1556 51.5436C28.1428 51.555 28.1278 51.5638 28.1116 51.5694C28.0953 51.575 28.0781 51.5774 28.061 51.5763H28.0533ZM34.4865 51.4996C34.4562 51.4943 34.4288 51.4785 34.409 51.455C34.3892 51.4315 34.3783 51.4017 34.3783 51.371C34.3783 51.3402 34.3892 51.3105 34.409 51.287C34.4288 51.2634 34.4562 51.2476 34.4865 51.2424C35.8485 51.0899 37.2015 50.8657 38.5399 50.5707C38.5568 50.5669 38.5743 50.5665 38.5913 50.5694C38.6084 50.5724 38.6247 50.5787 38.6393 50.588C38.6539 50.5972 38.6665 50.6093 38.6765 50.6234C38.6864 50.6376 38.6935 50.6536 38.6973 50.6705C38.7011 50.6874 38.7015 50.7048 38.6985 50.7219C38.6955 50.7389 38.6893 50.7552 38.68 50.7698C38.6707 50.7844 38.6587 50.7971 38.6445 50.807C38.6304 50.817 38.6144 50.8241 38.5975 50.8278C37.2513 51.1226 35.8906 51.3468 34.5211 51.4996H34.4865ZM39.8066 50.5323C39.7899 50.5344 39.773 50.5332 39.7568 50.5288C39.7407 50.5243 39.7255 50.5167 39.7123 50.5063C39.6991 50.496 39.6881 50.4831 39.6799 50.4684C39.6717 50.4538 39.6665 50.4377 39.6646 50.421C39.6602 50.3869 39.6694 50.3525 39.6903 50.3252C39.7111 50.2979 39.7419 50.2799 39.7759 50.2751C40.7547 50.0333 41.7488 49.7492 42.743 49.4307C42.7586 49.4245 42.7753 49.4215 42.7921 49.4218C42.8089 49.4221 42.8254 49.4258 42.8408 49.4326C42.8561 49.4394 42.87 49.4491 42.8815 49.4613C42.8931 49.4735 42.9021 49.4879 42.9081 49.5036C42.9148 49.5191 42.9182 49.5359 42.9182 49.5529C42.9181 49.5698 42.9146 49.5866 42.9077 49.6021C42.9009 49.6176 42.8909 49.6315 42.8784 49.6429C42.8659 49.6544 42.8512 49.6631 42.8351 49.6686C41.8371 49.9872 40.8315 50.2751 39.8527 50.5169L39.8066 50.5323ZM17.0677 47.5959C17.0404 47.596 17.0137 47.5879 16.991 47.5728C16.1306 46.985 15.324 46.3222 14.5804 45.5922C14.5583 45.5673 14.5465 45.535 14.5475 45.5017C14.5485 45.4684 14.5622 45.4368 14.5857 45.4132C14.6092 45.3897 14.6409 45.3761 14.6741 45.3751C14.7074 45.3741 14.7398 45.3859 14.7647 45.408C15.4909 46.1293 16.281 46.7832 17.1253 47.3617C17.1537 47.3812 17.1732 47.411 17.1797 47.4448C17.1862 47.4786 17.179 47.5136 17.1598 47.5421C17.1467 47.5591 17.1299 47.5728 17.1105 47.5822C17.0912 47.5915 17.07 47.5962 17.0485 47.5959H17.0677ZM51.2298 46.5441C51.2048 46.5437 51.1804 46.5363 51.1593 46.5227C51.1383 46.5092 51.1215 46.49 51.1108 46.4674C51.0979 46.4358 51.098 46.4004 51.1109 46.3689C51.1238 46.3373 51.1486 46.312 51.1799 46.2985C51.8708 46.0029 52.4926 45.7227 53.0991 45.4387L53.7516 45.1009C53.7667 45.0928 53.7833 45.0878 53.8004 45.0862C53.8174 45.0845 53.8346 45.0862 53.851 45.0912C53.8674 45.0962 53.8827 45.1044 53.8959 45.1152C53.9092 45.1261 53.9201 45.1395 53.9282 45.1546C53.9432 45.1858 53.9455 45.2216 53.9348 45.2545C53.9241 45.2874 53.9011 45.3149 53.8706 45.3312L53.2219 45.669C52.6231 45.953 51.9975 46.2371 51.3027 46.5365C51.285 46.5404 51.2667 46.5404 51.249 46.5365L51.2298 46.5441ZM118.928 46.4252C118.907 46.4307 118.884 46.4307 118.863 46.4252C117.992 45.8839 117.097 45.3542 116.203 44.8552C116.188 44.8469 116.175 44.8357 116.165 44.8222C116.154 44.8087 116.147 44.7932 116.142 44.7768C116.138 44.7603 116.137 44.7431 116.14 44.7262C116.142 44.7094 116.148 44.6932 116.157 44.6787C116.174 44.6488 116.202 44.6268 116.235 44.6175C116.268 44.6081 116.303 44.6122 116.333 44.6288C117.235 45.1316 118.126 45.6613 119.02 46.2064C119.046 46.2201 119.066 46.2422 119.077 46.2689C119.089 46.2957 119.09 46.3255 119.082 46.3533C119.074 46.3812 119.057 46.4055 119.033 46.422C119.009 46.4386 118.98 46.4465 118.951 46.4444L118.928 46.4252ZM13.782 44.6902C13.764 44.6902 13.7461 44.6864 13.7296 44.6791C13.7131 44.6719 13.6983 44.6613 13.6861 44.648C12.777 43.6012 11.989 42.4553 11.3369 41.2318C11.3254 41.2168 11.3172 41.1995 11.313 41.1811C11.3088 41.1626 11.3086 41.1435 11.3125 41.125C11.3164 41.1065 11.3243 41.0891 11.3356 41.0739C11.3469 41.0588 11.3614 41.0462 11.378 41.0372C11.3946 41.0282 11.413 41.0229 11.4319 41.0217C11.4507 41.0205 11.4696 41.0234 11.4873 41.0302C11.5049 41.037 11.5208 41.0476 11.534 41.0612C11.5471 41.0748 11.5572 41.0911 11.5634 41.1089C12.201 42.3147 12.9736 43.4441 13.8665 44.4752C13.89 44.5002 13.903 44.5331 13.903 44.5674C13.903 44.6016 13.89 44.6346 13.8665 44.6595C13.8415 44.6797 13.8103 44.6905 13.7782 44.6902H13.782ZM115.147 44.2334C115.127 44.2392 115.106 44.2392 115.086 44.2334C113.881 43.5886 112.637 42.9782 111.397 42.4102C111.382 42.4035 111.368 42.3938 111.356 42.3817C111.344 42.3695 111.335 42.3552 111.329 42.3394C111.323 42.3237 111.32 42.3069 111.321 42.2901C111.321 42.2732 111.325 42.2566 111.332 42.2413C111.347 42.2104 111.373 42.1864 111.405 42.1743C111.437 42.1621 111.473 42.1628 111.505 42.176C112.752 42.7441 114 43.3621 115.209 44.0069C115.239 44.0239 115.261 44.0519 115.27 44.085C115.279 44.118 115.275 44.1534 115.259 44.1835C115.247 44.2031 115.231 44.2194 115.212 44.2309C115.192 44.2423 115.17 44.2485 115.147 44.2488V44.2334ZM59.5323 42.4447C59.4984 42.4437 59.4661 42.4295 59.4425 42.4051C59.4188 42.3808 59.4056 42.3482 59.4056 42.3142C59.4055 42.2901 59.4124 42.2664 59.4253 42.246C59.4382 42.2256 59.4567 42.2093 59.4786 42.199C60.5648 41.6847 61.5897 41.2241 62.6069 40.7942C62.8257 40.7021 63.0406 40.6176 63.2517 40.537C63.2674 40.5307 63.2841 40.5275 63.3009 40.5277C63.3178 40.5279 63.3344 40.5313 63.3499 40.5379C63.3654 40.5445 63.3795 40.5541 63.3913 40.5661C63.4031 40.5782 63.4124 40.5924 63.4187 40.608C63.425 40.6236 63.4282 40.6404 63.428 40.6572C63.4279 40.6741 63.4244 40.6907 63.4178 40.7062C63.4112 40.7217 63.4016 40.7358 63.3896 40.7476C63.3776 40.7594 63.3633 40.7687 63.3477 40.775L62.7028 41.0322C61.6895 41.4621 60.6685 41.9227 59.5822 42.437L59.5323 42.4447ZM64.5223 40.3259C64.4887 40.3259 64.4565 40.3125 64.4327 40.2888C64.4089 40.265 64.3956 40.2328 64.3956 40.1992C64.3955 40.1726 64.4035 40.1465 64.4186 40.1246C64.4337 40.1026 64.4551 40.0858 64.48 40.0764C65.5318 39.6926 66.5605 39.3893 67.4318 39.1321C67.4482 39.1282 67.4653 39.1277 67.4819 39.1307C67.4985 39.1337 67.5143 39.1401 67.5284 39.1494C67.5424 39.1588 67.5544 39.171 67.5635 39.1851C67.5727 39.1993 67.5788 39.2153 67.5815 39.2319C67.588 39.2619 67.5834 39.2932 67.5686 39.32C67.5537 39.3468 67.5297 39.3673 67.5009 39.3778C66.6372 39.635 65.6085 39.9497 64.5607 40.3221L64.5223 40.3259ZM105.474 40.0303H105.432C104.542 39.7271 103.628 39.4392 102.745 39.1744C102.729 39.17 102.714 39.1624 102.701 39.152C102.688 39.1416 102.677 39.1286 102.669 39.1139C102.661 39.0991 102.657 39.0829 102.655 39.0663C102.654 39.0496 102.656 39.0329 102.661 39.017C102.665 39.0008 102.673 38.9856 102.683 38.9724C102.694 38.9592 102.706 38.9481 102.721 38.9399C102.736 38.9317 102.752 38.9265 102.769 38.9246C102.785 38.9226 102.802 38.924 102.818 38.9287C103.72 39.1936 104.634 39.4814 105.524 39.7847C105.555 39.7921 105.582 39.8109 105.6 39.8373C105.618 39.8636 105.625 39.8957 105.62 39.9271C105.615 39.9584 105.599 39.9869 105.574 40.0067C105.549 40.0265 105.518 40.0363 105.486 40.0342L105.474 40.0303ZM76.241 37.3434C76.21 37.3439 76.1799 37.3334 76.156 37.3137C76.1321 37.294 76.116 37.2664 76.1105 37.236C76.1059 37.202 76.1145 37.1676 76.1345 37.1398C76.1545 37.1119 76.1843 37.0928 76.218 37.0863C77.1507 36.9481 78.0988 36.8214 79.0354 36.7024C79.0694 36.6992 79.1034 36.7094 79.1299 36.731C79.1565 36.7525 79.1735 36.7836 79.1774 36.8176C79.1806 36.8516 79.1704 36.8856 79.1488 36.9121C79.1273 36.9387 79.0962 36.9557 79.0622 36.9596C78.1295 37.0594 77.1853 37.1784 76.2602 37.3434H76.241ZM93.963 37.2859C92.9459 37.14 91.9172 37.0172 90.8923 36.925C90.8583 36.9212 90.8272 36.9041 90.8057 36.8776C90.7842 36.851 90.7739 36.8171 90.7771 36.783C90.7786 36.766 90.7834 36.7494 90.7914 36.7343C90.7994 36.7192 90.8103 36.7059 90.8236 36.6952C90.8369 36.6844 90.8522 36.6764 90.8686 36.6717C90.885 36.6671 90.9022 36.6657 90.9192 36.6679C91.9402 36.76 92.9804 36.8828 93.9899 37.0287C94.0239 37.0316 94.0553 37.0477 94.0775 37.0735C94.0998 37.0994 94.111 37.1329 94.1089 37.1669C94.1054 37.1847 94.0982 37.2015 94.0878 37.2164C94.0773 37.2313 94.0639 37.2438 94.0484 37.2532C94.0329 37.2626 94.0155 37.2686 93.9976 37.271C93.9795 37.2733 93.9613 37.2718 93.9438 37.2667L93.963 37.2859ZM89.6064 36.8214C88.5777 36.7485 87.5452 36.6986 86.5357 36.6794H85.5031C85.4844 36.6826 85.4652 36.6817 85.4468 36.6768C85.4284 36.6718 85.4114 36.6629 85.3968 36.6507C85.3823 36.6384 85.3705 36.6231 85.3625 36.6059C85.3545 36.5886 85.3503 36.5698 85.3503 36.5508C85.3503 36.5318 85.3545 36.513 85.3625 36.4957C85.3705 36.4785 85.3823 36.4632 85.3968 36.4509C85.4114 36.4387 85.4284 36.4298 85.4468 36.4248C85.4652 36.4198 85.4844 36.419 85.5031 36.4222C85.8409 36.4222 86.1864 36.4222 86.5357 36.4222C87.5644 36.4222 88.6007 36.4913 89.6333 36.5642C89.6672 36.5672 89.6987 36.5833 89.7209 36.6091C89.7432 36.6349 89.7544 36.6684 89.7523 36.7024C89.7488 36.7202 89.7416 36.7371 89.7311 36.752C89.7207 36.7668 89.7073 36.7794 89.6918 36.7887C89.6762 36.7981 89.6589 36.8042 89.6409 36.8065C89.6229 36.8088 89.6046 36.8074 89.5872 36.8022L89.6064 36.8214Z" fill="#86D0CB"/>
<path d="M22.8244 64.9341C22.7068 64.934 22.593 64.8924 22.5031 64.8165C22.4132 64.7407 22.353 64.6355 22.3331 64.5196L20.9244 56.8888C20.9005 56.7554 20.9305 56.618 21.0079 56.5068C21.0853 56.3956 21.2037 56.3197 21.337 56.2957C21.4704 56.2718 21.6078 56.3019 21.719 56.3792C21.8302 56.4566 21.9062 56.575 21.9301 56.7084L23.3349 64.3392C23.3601 64.4678 23.3341 64.6011 23.2624 64.7108C23.1907 64.8205 23.079 64.8979 22.9511 64.9265L22.8244 64.9341Z" fill="#E2645A"/>
<path d="M30.7715 64.9341C30.6532 64.9349 30.5385 64.8937 30.4478 64.8178C30.3571 64.7418 30.2964 64.6362 30.2763 64.5196L28.8676 56.8888C28.8558 56.8227 28.8571 56.755 28.8714 56.6895C28.8857 56.624 28.9128 56.5619 28.9511 56.5068C28.9895 56.4517 29.0382 56.4048 29.0947 56.3685C29.1512 56.3323 29.2142 56.3076 29.2803 56.2957C29.3463 56.2839 29.414 56.2852 29.4796 56.2995C29.5451 56.3138 29.6072 56.3409 29.6623 56.3792C29.7173 56.4176 29.7643 56.4663 29.8005 56.5228C29.8367 56.5793 29.8615 56.6423 29.8733 56.7084L31.2782 64.3392C31.3033 64.4678 31.2773 64.6011 31.2056 64.7108C31.1339 64.8205 31.0222 64.8979 30.8943 64.9265L30.7715 64.9341Z" fill="#E2645A"/>
<path d="M36.1052 59.092C36.0622 59.1153 36.0155 59.1309 35.9671 59.1381C35.8342 59.1567 35.6994 59.1219 35.5922 59.0413C35.485 58.9607 35.4141 58.8409 35.3951 58.7082L35.0996 56.8273C35.0909 56.7006 35.1301 56.5753 35.2095 56.4762C35.2888 56.3771 35.4025 56.3113 35.528 56.292C35.6535 56.2727 35.7817 56.3012 35.8872 56.3719C35.9926 56.4426 36.0677 56.5504 36.0976 56.6738L36.3893 58.5469C36.4089 58.6564 36.3916 58.7693 36.3402 58.8679C36.2888 58.9666 36.2062 59.0454 36.1052 59.092Z" fill="#E2645A"/>
<path d="M15.9712 65.675C15.8379 65.675 15.71 65.622 15.6157 65.5277C15.5214 65.4334 15.4684 65.3055 15.4684 65.1721C15.4684 65.0388 15.5214 64.9109 15.6157 64.8166C15.71 64.7223 15.8379 64.6693 15.9712 64.6693H38.0767C38.2101 64.6693 38.338 64.7223 38.4323 64.8166C38.5266 64.9109 38.5796 65.0388 38.5796 65.1721C38.5796 65.3055 38.5266 65.4334 38.4323 65.5277C38.338 65.622 38.2101 65.675 38.0767 65.675H15.9712Z" fill="#E2645A"/>
<path d="M38.67 71.1714C38.5367 71.1714 38.4088 71.1184 38.3145 71.0241C38.2202 70.9298 38.1672 70.8019 38.1672 70.6685V65.2333H37.1615C37.0282 65.2333 36.9003 65.1803 36.806 65.086C36.7117 64.9917 36.6587 64.8639 36.6587 64.7305C36.6587 64.5971 36.7117 64.4692 36.806 64.3749C36.9003 64.2806 37.0282 64.2277 37.1615 64.2277H39.1767V70.6647C39.1767 70.7991 39.1233 70.928 39.0283 71.023C38.9333 71.118 38.8044 71.1714 38.67 71.1714Z" fill="#E2645A"/>
<path d="M36.7661 70.3772C36.6328 70.3772 36.5049 70.3242 36.4106 70.2299C36.3163 70.1356 36.2633 70.0077 36.2633 69.8743V64.7232C36.2633 64.5898 36.3163 64.4619 36.4106 64.3676C36.5049 64.2733 36.6328 64.2203 36.7661 64.2203C36.8995 64.2203 37.0274 64.2733 37.1217 64.3676C37.216 64.4619 37.269 64.5898 37.269 64.7232V69.859C37.271 69.9254 37.2599 69.9915 37.2363 70.0535C37.2126 70.1155 37.1769 70.1723 37.1313 70.2204C37.0856 70.2686 37.0308 70.3073 36.9701 70.3342C36.9094 70.3611 36.844 70.3757 36.7777 70.3772H36.7661Z" fill="#E2645A"/>
<path d="M17.9595 71.6134C17.8935 71.6134 17.8281 71.6004 17.7671 71.5751C17.7061 71.5499 17.6507 71.5128 17.604 71.4661C17.5573 71.4194 17.5202 71.364 17.495 71.303C17.4697 71.242 17.4567 71.1766 17.4567 71.1106L17.545 65.6715L16.4779 65.5103V70.4389C16.4669 70.5651 16.4089 70.6827 16.3155 70.7683C16.222 70.854 16.0999 70.9015 15.9731 70.9015C15.8464 70.9015 15.7242 70.854 15.6308 70.7683C15.5374 70.6827 15.4794 70.5651 15.4684 70.4389V64.3319L18.5775 64.8002L18.47 71.1221C18.469 71.1876 18.4551 71.2523 18.4291 71.3125C18.4031 71.3726 18.3655 71.4271 18.3185 71.4727C18.2714 71.5183 18.2158 71.5542 18.1549 71.5784C18.094 71.6025 18.0289 71.6144 17.9634 71.6134H17.9595Z" fill="#E2645A"/>
<path d="M14.919 60.6966C14.8059 60.6972 14.6959 60.6597 14.6067 60.59C14.5175 60.5204 14.4545 60.4227 14.4277 60.3127L13.66 56.9196C13.6448 56.8545 13.6426 56.7871 13.6537 56.7212C13.6648 56.6553 13.6889 56.5923 13.7247 56.5358C13.7604 56.4793 13.8071 56.4305 13.8619 56.3923C13.9167 56.3541 13.9785 56.3271 14.0439 56.3131C14.1747 56.2845 14.3114 56.3088 14.4244 56.3807C14.5373 56.4526 14.6171 56.5663 14.6465 56.6969L15.4142 60.094C15.4469 60.2227 15.4273 60.3592 15.3596 60.4735C15.292 60.5879 15.1819 60.6708 15.0534 60.7043H14.9229L14.919 60.6966Z" fill="#E2645A"/>
<path d="M37.1724 65.2334H15.5543L13.877 57.9404L14.3184 57.8022C22.0912 55.3226 28.06 55.3226 35.8366 57.8022L36.2627 57.9366L37.1724 65.2334ZM16.3719 64.2278H35.9479L35.0958 58.639C27.8028 56.4089 22.3714 56.4089 15.0669 58.639L16.3719 64.2278Z" fill="#E2645A"/>
<path d="M120.38 64.9264C120.249 64.9021 120.132 64.8267 120.056 64.7167C119.98 64.6067 119.95 64.4709 119.973 64.3391L121.378 56.7083C121.411 56.5832 121.49 56.4749 121.599 56.4052C121.708 56.3354 121.839 56.3094 121.966 56.3321C122.094 56.3549 122.208 56.4248 122.286 56.528C122.364 56.6312 122.4 56.76 122.388 56.8887L120.979 64.5196C120.958 64.6358 120.897 64.741 120.807 64.8168C120.716 64.8926 120.602 64.9341 120.484 64.9341L120.38 64.9264Z" fill="#E2645A"/>
<path d="M112.434 64.9264C112.303 64.9021 112.186 64.8267 112.11 64.7167C112.033 64.6067 112.004 64.4709 112.027 64.3391L113.432 56.7083C113.465 56.5832 113.544 56.4749 113.653 56.4052C113.762 56.3354 113.893 56.3094 114.02 56.3321C114.148 56.3549 114.262 56.4248 114.34 56.528C114.418 56.6312 114.454 56.76 114.442 56.8887L113.029 64.5196C113.009 64.6355 112.949 64.7406 112.859 64.8165C112.769 64.8923 112.656 64.934 112.538 64.9341L112.434 64.9264Z" fill="#E2645A"/>
<path d="M106.926 58.5586L107.218 56.6854C107.223 56.6154 107.242 56.5472 107.274 56.4851C107.307 56.4229 107.352 56.3682 107.407 56.3244C107.461 56.2805 107.525 56.2486 107.592 56.2304C107.66 56.2123 107.731 56.2085 107.8 56.2191C107.87 56.2298 107.936 56.2548 107.995 56.2924C108.054 56.33 108.105 56.3796 108.144 56.4378C108.183 56.4961 108.21 56.5618 108.222 56.6309C108.234 56.6999 108.232 56.7708 108.216 56.8389L107.92 58.7198C107.899 58.8509 107.828 58.9685 107.721 59.0468C107.613 59.1252 107.48 59.158 107.348 59.1382C107.3 59.1304 107.253 59.1148 107.21 59.0921C107.112 59.0455 107.031 58.9684 106.98 58.8723C106.929 58.7762 106.91 58.6662 106.926 58.5586Z" fill="#E2645A"/>
<path d="M127.331 65.675H105.233C105.1 65.675 104.972 65.622 104.877 65.5277C104.783 65.4334 104.73 65.3055 104.73 65.1721C104.73 65.0388 104.783 64.9109 104.877 64.8166C104.972 64.7223 105.1 64.6693 105.233 64.6693H127.335C127.468 64.6693 127.596 64.7223 127.69 64.8166C127.784 64.9109 127.837 65.0388 127.837 65.1721C127.837 65.3055 127.784 65.4334 127.69 65.5277C127.596 65.622 127.468 65.675 127.335 65.675H127.331Z" fill="#E2645A"/>
<path d="M104.137 70.6689V64.2318H106.148C106.282 64.2318 106.41 64.2848 106.504 64.3791C106.598 64.4734 106.651 64.6013 106.651 64.7346C106.651 64.868 106.598 64.9959 106.504 65.0902C106.41 65.1845 106.282 65.2375 106.148 65.2375H105.143V70.6689C105.143 70.8022 105.09 70.9301 104.995 71.0244C104.901 71.1187 104.773 71.1717 104.64 71.1717C104.507 71.1717 104.379 71.1187 104.284 71.0244C104.19 70.9301 104.137 70.8022 104.137 70.6689Z" fill="#E2645A"/>
<path d="M106.535 70.3771C106.401 70.3731 106.274 70.3164 106.182 70.2193C106.09 70.1222 106.04 69.9927 106.044 69.8589V64.7231C106.055 64.5968 106.113 64.4793 106.206 64.3936C106.299 64.308 106.422 64.2605 106.548 64.2605C106.675 64.2605 106.797 64.308 106.891 64.3936C106.984 64.4793 107.042 64.5968 107.053 64.7231V69.8743C107.053 70.0076 107 70.1355 106.906 70.2298C106.812 70.3241 106.684 70.3771 106.55 70.3771H106.535Z" fill="#E2645A"/>
<path d="M125.35 71.6134C125.284 71.6144 125.219 71.6025 125.158 71.5784C125.098 71.5542 125.042 71.5183 124.995 71.4727C124.948 71.4271 124.91 71.3726 124.884 71.3125C124.858 71.2523 124.844 71.1876 124.843 71.1221L124.751 64.8002L127.857 64.3319V70.4273C127.857 70.5607 127.804 70.6886 127.709 70.7829C127.615 70.8772 127.487 70.9302 127.354 70.9302C127.22 70.9302 127.092 70.8772 126.998 70.7829C126.904 70.6886 126.851 70.5607 126.851 70.4273V65.4988L125.78 65.66L125.872 71.0991C125.872 71.1654 125.859 71.2311 125.833 71.2924C125.808 71.3536 125.771 71.4092 125.723 71.456C125.676 71.5027 125.62 71.5397 125.559 71.5647C125.498 71.5898 125.432 71.6024 125.365 71.6019L125.35 71.6134Z" fill="#E2645A"/>
<path d="M128.277 60.6966H128.258C128.195 60.6801 128.135 60.6512 128.083 60.6116C128.03 60.5719 127.986 60.5223 127.953 60.4656C127.92 60.4089 127.898 60.3462 127.889 60.2811C127.88 60.216 127.885 60.1498 127.901 60.0863L128.669 56.6893C128.683 56.6245 128.709 56.5631 128.747 56.5086C128.784 56.4542 128.832 56.4077 128.888 56.372C128.944 56.3363 129.006 56.312 129.071 56.3006C129.136 56.2892 129.203 56.2908 129.268 56.3055C129.399 56.3357 129.512 56.4163 129.584 56.5299C129.656 56.6434 129.68 56.7807 129.652 56.912L128.884 60.3051C128.857 60.4151 128.794 60.5127 128.705 60.5824C128.616 60.652 128.506 60.6896 128.393 60.689L128.277 60.6966Z" fill="#E2645A"/>
<path d="M107.045 57.9405L107.475 57.8061C115.248 55.3265 121.22 55.3265 128.993 57.8061L129.431 57.9443L127.753 65.2373H106.135L107.045 57.9405ZM128.229 58.6276C120.936 56.3974 115.505 56.3974 108.2 58.6276L107.348 64.2163H126.924L128.229 58.6276Z" fill="#E2645A"/>
<path opacity="0.73" d="M22.7403 61.4399C13.8282 61.4399 6.60352 68.6646 6.60352 77.5767H38.8771C38.8771 68.6646 31.6524 61.4399 22.7403 61.4399Z" fill="#63AA90"/>
<path opacity="0.73" d="M37.5422 61.4147C28.6301 61.4147 21.4054 68.6394 21.4054 77.5514H53.679C53.679 68.6394 46.4543 61.4147 37.5422 61.4147Z" fill="#63AA90"/>
<path opacity="0.73" d="M121.469 61.0225C112.557 61.0225 105.332 68.2471 105.332 77.1592H137.606C137.606 68.2471 130.381 61.0225 121.469 61.0225Z" fill="#63AA90"/>
<path opacity="0.73" d="M106.667 61.0315C97.755 61.0315 90.5303 68.2562 90.5303 77.1683H122.804C122.804 68.2562 115.579 61.0315 106.667 61.0315Z" fill="#63AA90"/>
<path d="M41.5702 85.7302H2.69458C1.2064 85.7302 0 86.9358 0 88.4229C0 89.91 1.2064 91.1155 2.69458 91.1155H41.5702C43.0584 91.1155 44.2648 89.91 44.2648 88.4229C44.2648 86.9358 43.0584 85.7302 41.5702 85.7302Z" fill="#F2F2F2"/>
<path d="M120.15 94.9005H41.8457C40.3575 94.9005 39.1511 96.1061 39.1511 97.5932C39.1511 99.0803 40.3575 100.286 41.8457 100.286H120.15C121.638 100.286 122.844 99.0803 122.844 97.5932C122.844 96.1061 121.638 94.9005 120.15 94.9005Z" fill="#F2F2F2"/>
<path d="M76.5992 98.958L77.7508 101.261C77.8042 101.369 77.8832 101.463 77.9808 101.534C78.0784 101.604 78.1918 101.651 78.3112 101.668L80.856 102.052C80.9935 102.072 81.1225 102.13 81.2285 102.22C81.3346 102.31 81.4134 102.427 81.4561 102.559C81.4988 102.692 81.5037 102.833 81.4703 102.968C81.4368 103.103 81.3663 103.225 81.2668 103.322L79.4281 105.115C79.3424 105.201 79.2782 105.306 79.2408 105.421C79.2035 105.536 79.194 105.659 79.2132 105.779L79.6469 108.308C79.6711 108.446 79.6562 108.587 79.604 108.716C79.5517 108.846 79.4642 108.958 79.3514 109.04C79.2386 109.122 79.105 109.171 78.9659 109.18C78.8268 109.19 78.6877 109.161 78.5645 109.095L76.2921 107.902C76.1852 107.845 76.0659 107.815 75.9448 107.815C75.8236 107.815 75.7044 107.845 75.5974 107.902L73.3174 109.084C73.1942 109.149 73.0551 109.179 72.916 109.169C72.7768 109.159 72.6433 109.11 72.5304 109.028C72.4176 108.946 72.3301 108.834 72.2779 108.705C72.2256 108.576 72.2107 108.434 72.2349 108.297L72.6687 105.767C72.6879 105.648 72.6784 105.525 72.641 105.409C72.6037 105.294 72.5395 105.189 72.4537 105.103L70.6151 103.311C70.5155 103.214 70.445 103.091 70.4117 102.956C70.3785 102.82 70.3837 102.679 70.4269 102.546C70.47 102.414 70.5494 102.297 70.6559 102.207C70.7624 102.118 70.8919 102.06 71.0297 102.04L73.5707 101.656C73.6901 101.638 73.8035 101.591 73.9016 101.521C73.9996 101.45 74.0796 101.357 74.1349 101.25L75.2865 98.9465C75.3511 98.8283 75.4467 98.7298 75.5629 98.6616C75.679 98.5934 75.8116 98.5581 75.9463 98.5592C76.081 98.5604 76.2129 98.5981 76.3279 98.6683C76.4429 98.7386 76.5366 98.8387 76.5992 98.958Z" fill="#FFB854"/>
<path d="M90.2464 98.9578L91.3979 101.261C91.4514 101.369 91.5303 101.462 91.6279 101.533C91.7256 101.604 91.8389 101.65 91.9583 101.668L94.5032 102.052C94.6406 102.072 94.7696 102.13 94.8757 102.22C94.9817 102.309 95.0605 102.427 95.1033 102.559C95.146 102.691 95.1509 102.833 95.1174 102.968C95.084 103.102 95.0135 103.225 94.9139 103.322L93.0753 105.115C92.9896 105.2 92.9254 105.305 92.888 105.421C92.8506 105.536 92.8412 105.659 92.8603 105.779L93.2941 108.308C93.3183 108.446 93.3034 108.587 93.2511 108.716C93.1989 108.846 93.1114 108.958 92.9986 109.04C92.8858 109.122 92.7522 109.17 92.6131 109.18C92.4739 109.19 92.3349 109.16 92.2117 109.095L89.9393 107.901C89.8323 107.845 89.713 107.815 89.5919 107.815C89.4708 107.815 89.3515 107.845 89.2445 107.901L86.9684 109.095C86.8452 109.16 86.7061 109.19 86.567 109.18C86.4278 109.17 86.2943 109.122 86.1814 109.04C86.0686 108.958 85.9811 108.846 85.9289 108.716C85.8766 108.587 85.8617 108.446 85.8859 108.308L86.3197 105.779C86.3389 105.659 86.3294 105.536 86.292 105.421C86.2547 105.305 86.1905 105.2 86.1047 105.115L84.2661 103.322C84.1665 103.225 84.096 103.102 84.0627 102.967C84.0295 102.832 84.0347 102.69 84.0779 102.558C84.121 102.425 84.2004 102.308 84.3069 102.218C84.4134 102.129 84.5429 102.071 84.6807 102.052L87.2217 101.668C87.3411 101.649 87.4545 101.603 87.5526 101.532C87.6506 101.461 87.7306 101.368 87.7859 101.261L88.9375 98.9578C89.0014 98.84 89.096 98.7416 89.2112 98.6731C89.3263 98.6045 89.4579 98.5684 89.5919 98.5684C89.726 98.5684 89.8575 98.6045 89.9727 98.6731C90.0879 98.7416 90.1824 98.84 90.2464 98.9578Z" fill="#FFB854"/>
<path d="M103.513 98.9578L104.665 101.261C104.718 101.369 104.797 101.463 104.895 101.533C104.992 101.604 105.106 101.65 105.225 101.668L107.77 102.052C107.907 102.072 108.036 102.13 108.142 102.22C108.248 102.31 108.327 102.427 108.37 102.559C108.413 102.691 108.418 102.833 108.384 102.968C108.351 103.103 108.28 103.225 108.181 103.322L106.327 105.103C106.241 105.189 106.177 105.294 106.139 105.409C106.102 105.525 106.093 105.647 106.112 105.767L106.545 108.297C106.57 108.434 106.555 108.575 106.502 108.705C106.45 108.834 106.363 108.946 106.25 109.028C106.137 109.11 106.004 109.159 105.864 109.169C105.725 109.178 105.586 109.149 105.463 109.084L103.191 107.89C103.084 107.833 102.964 107.803 102.843 107.803C102.722 107.803 102.603 107.833 102.496 107.89L100.22 109.084C100.097 109.149 99.9574 109.178 99.8183 109.169C99.6792 109.159 99.5456 109.11 99.4328 109.028C99.32 108.946 99.2325 108.834 99.1802 108.705C99.128 108.575 99.1131 108.434 99.1373 108.297L99.571 105.767C99.5902 105.647 99.5807 105.525 99.5434 105.409C99.506 105.294 99.4418 105.189 99.3561 105.103L97.5174 103.311C97.4178 103.214 97.3474 103.09 97.3141 102.955C97.2808 102.82 97.2861 102.679 97.3292 102.546C97.3724 102.414 97.4517 102.297 97.5583 102.207C97.6648 102.118 97.7943 102.06 97.932 102.04L100.473 101.656C100.592 101.638 100.706 101.591 100.804 101.52C100.902 101.45 100.982 101.357 101.037 101.249L102.189 98.9463C102.252 98.8252 102.348 98.724 102.466 98.6537C102.583 98.5835 102.718 98.5469 102.854 98.5481C102.991 98.5493 103.125 98.5882 103.241 98.6604C103.358 98.7327 103.452 98.8356 103.513 98.9578Z" fill="#FFB854"/>
<path d="M117.364 98.9578L118.516 101.261C118.571 101.368 118.651 101.461 118.749 101.532C118.847 101.603 118.961 101.649 119.08 101.668L121.621 102.052C121.759 102.071 121.888 102.129 121.995 102.218C122.101 102.308 122.181 102.425 122.224 102.558C122.267 102.69 122.272 102.832 122.239 102.967C122.206 103.102 122.135 103.225 122.036 103.322L120.197 105.115C120.111 105.2 120.047 105.305 120.01 105.421C119.972 105.536 119.963 105.659 119.982 105.779L120.416 108.308C120.44 108.446 120.425 108.587 120.373 108.716C120.321 108.846 120.233 108.958 120.12 109.04C120.007 109.122 119.874 109.17 119.735 109.18C119.596 109.19 119.457 109.16 119.333 109.095L117.057 107.901C116.95 107.845 116.831 107.815 116.71 107.815C116.589 107.815 116.469 107.845 116.362 107.901L114.09 109.095C113.967 109.16 113.828 109.19 113.689 109.18C113.55 109.17 113.416 109.122 113.303 109.04C113.19 108.958 113.103 108.846 113.051 108.716C112.998 108.587 112.983 108.446 113.008 108.308L113.441 105.779C113.461 105.659 113.451 105.536 113.414 105.421C113.376 105.305 113.312 105.2 113.226 105.115L111.388 103.322C111.288 103.225 111.218 103.102 111.184 102.968C111.151 102.833 111.156 102.691 111.198 102.559C111.241 102.427 111.32 102.309 111.426 102.22C111.532 102.13 111.661 102.072 111.799 102.052L114.343 101.668C114.463 101.65 114.576 101.604 114.674 101.533C114.771 101.462 114.85 101.369 114.904 101.261L116.055 98.9578C116.119 98.84 116.214 98.7416 116.329 98.6731C116.444 98.6045 116.576 98.5684 116.71 98.5684C116.844 98.5684 116.975 98.6045 117.091 98.6731C117.206 98.7416 117.3 98.84 117.364 98.9578Z" fill="#FFB854"/>
<path d="M131.144 98.9578L132.295 101.261C132.349 101.369 132.428 101.463 132.525 101.533C132.623 101.604 132.736 101.65 132.856 101.668L135.401 102.052C135.538 102.072 135.667 102.13 135.773 102.22C135.879 102.31 135.958 102.427 136.001 102.559C136.044 102.691 136.048 102.833 136.015 102.968C135.982 103.103 135.911 103.225 135.811 103.322L133.961 105.103C133.876 105.189 133.811 105.294 133.774 105.409C133.737 105.525 133.727 105.647 133.746 105.767L134.18 108.297C134.204 108.434 134.189 108.575 134.137 108.705C134.085 108.834 133.997 108.946 133.885 109.028C133.772 109.11 133.638 109.159 133.499 109.169C133.36 109.178 133.221 109.149 133.098 109.084L130.825 107.89C130.718 107.833 130.599 107.803 130.478 107.803C130.357 107.803 130.238 107.833 130.131 107.89L127.854 109.084C127.731 109.149 127.592 109.178 127.453 109.169C127.314 109.159 127.18 109.11 127.067 109.028C126.955 108.946 126.867 108.834 126.815 108.705C126.763 108.575 126.748 108.434 126.772 108.297L127.206 105.767C127.225 105.647 127.215 105.525 127.178 105.409C127.141 105.294 127.076 105.189 126.991 105.103L125.133 103.311C125.033 103.214 124.963 103.09 124.93 102.955C124.896 102.82 124.902 102.679 124.945 102.546C124.988 102.414 125.067 102.296 125.174 102.207C125.28 102.118 125.41 102.06 125.547 102.04L128.089 101.656C128.208 101.638 128.321 101.591 128.419 101.52C128.517 101.45 128.597 101.357 128.653 101.249L129.804 98.9463C129.866 98.8211 129.963 98.716 130.082 98.6428C130.201 98.5697 130.338 98.5315 130.478 98.5327C130.617 98.5339 130.754 98.5744 130.872 98.6496C130.99 98.7248 131.084 98.8316 131.144 98.9578Z" fill="#FFB854"/>
<path d="M108.248 85.5394H69.3722C67.884 85.5394 66.6776 86.745 66.6776 88.2321C66.6776 89.7192 67.884 90.9248 69.3722 90.9248H108.248C109.736 90.9248 110.942 89.7192 110.942 88.2321C110.942 86.745 109.736 85.5394 108.248 85.5394Z" fill="#F2F2F2"/>
<path d="M126.669 14.6083C126.613 14.6079 126.558 14.5962 126.508 14.5738C126.405 14.5297 126.324 14.4471 126.281 14.3438C126.239 14.2404 126.239 14.1245 126.281 14.0211L129.559 6.27126C129.57 6.24457 129.582 6.21887 129.598 6.19449C129.605 6.16707 129.614 6.14015 129.624 6.11388L130.277 4.57851C130.33 4.49206 130.412 4.42761 130.509 4.39695C130.606 4.36629 130.71 4.37147 130.804 4.41154C130.897 4.45162 130.972 4.5239 131.017 4.61518C131.061 4.70646 131.071 4.81062 131.045 4.90862L130.392 6.44399C130.38 6.47079 130.366 6.49648 130.35 6.52076C130.346 6.54852 130.338 6.57563 130.327 6.60137L127.053 14.3512C127.021 14.4267 126.967 14.4912 126.899 14.5369C126.831 14.5826 126.751 14.6074 126.669 14.6083ZM131.321 3.59971C131.252 3.59893 131.184 3.58107 131.123 3.54773C131.062 3.51438 131.01 3.46657 130.972 3.40851C130.934 3.35046 130.911 3.28395 130.905 3.21487C130.899 3.14579 130.91 3.07626 130.937 3.01243L131.102 2.62859C131.123 2.57627 131.154 2.52864 131.193 2.48854C131.233 2.44844 131.28 2.41669 131.332 2.39519C131.384 2.3737 131.439 2.36289 131.496 2.36342C131.552 2.36395 131.607 2.37581 131.659 2.39828C131.71 2.41924 131.756 2.45017 131.795 2.48926C131.834 2.52836 131.865 2.57482 131.885 2.62594C131.906 2.67706 131.917 2.73181 131.916 2.78697C131.915 2.84213 131.903 2.8966 131.881 2.94718L131.716 3.33102C131.685 3.41021 131.63 3.47814 131.56 3.52604C131.489 3.57393 131.406 3.5996 131.321 3.59971Z" fill="#84B8E2"/>
<path d="M134.322 20.3738C134.238 20.3734 134.155 20.3477 134.086 20.3001C134.016 20.2525 133.962 20.1851 133.931 20.1066C133.9 20.0281 133.894 19.9421 133.912 19.8597C133.93 19.7774 133.973 19.7024 134.034 19.6445L140.176 13.9099L140.245 13.8561L140.299 13.7947L141.531 12.6432C141.57 12.6001 141.618 12.5656 141.671 12.5419C141.724 12.5182 141.782 12.5057 141.84 12.5053C141.898 12.5049 141.956 12.5165 142.009 12.5395C142.063 12.5624 142.111 12.5962 142.151 12.6387C142.191 12.6812 142.221 12.7315 142.241 12.7864C142.26 12.8413 142.268 12.8996 142.264 12.9577C142.26 13.0158 142.244 13.0724 142.217 13.124C142.19 13.1756 142.152 13.2209 142.107 13.2573L140.874 14.4088C140.853 14.4288 140.83 14.4468 140.805 14.4626C140.789 14.4848 140.771 14.5054 140.752 14.524L134.61 20.2816C134.528 20.3462 134.426 20.3789 134.322 20.3738ZM143.066 12.2286C142.982 12.2268 142.9 12.1998 142.831 12.1511C142.763 12.1024 142.71 12.0343 142.68 11.9554C142.651 11.8766 142.645 11.7907 142.665 11.7087C142.684 11.6267 142.728 11.5525 142.79 11.4955L155.023 0.0914994C155.106 0.0253296 155.212 -0.00690816 155.318 0.00123955C155.424 0.00938725 155.523 0.0573191 155.595 0.13544C155.668 0.213561 155.708 0.316107 155.708 0.422549C155.707 0.528991 155.667 0.631476 155.595 0.709487L143.354 12.1135C143.276 12.187 143.173 12.2281 143.066 12.2286Z" fill="#DB5D79"/>
</svg>
